<svg width="1773" height="2500" viewBox="0 0 1773 2500" fill="none" xmlns="http://www.w3.org/2000/svg">
<path d="M885.42 2493.68L163.938 2293.39L3.15515 490.069H1769.84L1608.9 2293.12L885.42 2493.68V2493.68Z" fill="#264DE4"/>
<path d="M1471.11 2178.3L1608.64 637.514H886.5V2340.37L1471.11 2178.3V2178.3Z" fill="#2965F1"/>
<path d="M371.742 1306.34L391.562 1527.51H886.5V1306.34H371.742ZM331.909 858.691L352.012 1079.86H886.5V858.691H331.909V858.691ZM886.5 1880.75L885.531 1881L639.215 1814.49L623.467 1638.1H401.445L432.428 1985.37L885.482 2111.14L886.5 2110.86V1880.75Z" fill="#EBEBEB"/>
<path d="M418.938 0H686.805V112.022H530.96V224.044H686.819V336.06H418.938V0ZM740.385 0H1008.26V97.41H852.407V116.891H1008.26V340.935H740.392V238.643H896.244V219.162H740.378V0H740.385ZM1061.84 0H1329.71V97.41H1173.86V116.891H1329.71V340.935H1061.84V238.643H1217.69V219.162H1061.85V0H1061.84Z" fill="#FAFAFA"/>
<path d="M1399.84 1306.34L1439.77 858.691H885.738V1079.86H1197.39L1177.26 1306.34H885.738V1527.51H1158.09L1132.41 1814.36L885.731 1880.93V2111.03L1339.15 1985.37L1342.47 1948.01L1394.45 1365.73L1399.84 1306.34V1306.34Z" fill="white"/>
</svg>
