<svg width="2500" height="728" viewBox="0 0 2500 728" fill="none" xmlns="http://www.w3.org/2000/svg">
<path d="M16.2695 564.825V286.598H363.652V270.323H16.2695V16.5H385.615V0.230469H0V581.095H388.867V564.825H16.2744H16.2695ZM702.085 162.936L558.091 352.491L417.344 162.94H396.191L548.325 364.698L381.543 581.09H401.069L558.081 376.891L715.908 581.09H736.245L568.657 364.688L721.602 162.931H702.08L702.085 162.936ZM785.064 724.278V463.951H786.689C796.455 501.915 815.708 532.423 844.453 555.475C873.198 578.521 909.805 590.05 954.277 590.05C983.022 590.05 1008.52 584.22 1030.75 572.56C1052.99 560.899 1071.56 545.035 1086.48 524.967C1101.39 504.898 1112.78 481.578 1120.65 455.001C1128.51 428.429 1132.45 400.494 1132.45 371.212C1132.45 339.752 1128.37 310.733 1120.24 284.161C1112.1 257.584 1100.31 234.532 1084.85 215.011C1069.39 195.484 1050.68 180.294 1028.72 169.454C1006.75 158.605 981.938 153.18 954.277 153.18C933.125 153.18 913.467 156.3 895.298 162.535C877.129 168.775 860.996 177.584 846.895 188.976C832.71 200.455 820.364 214.034 810.283 229.244C799.98 244.703 792.114 261.651 786.689 280.094H785.064V162.936H768.794V724.278H785.064V724.278ZM954.277 574.586C903.301 574.586 862.349 557.096 831.436 522.115C800.522 487.135 785.064 436.827 785.064 371.202C785.064 344.083 788.862 318.321 796.455 293.917C804.048 269.513 815.029 248.087 829.399 229.649C843.774 211.207 861.538 196.563 882.686 185.719C903.838 174.869 927.705 169.444 954.277 169.444C981.397 169.444 1005.13 174.869 1025.46 185.719C1045.8 196.563 1062.62 211.344 1075.9 230.055C1089.19 248.766 1099.22 270.191 1106.01 294.322C1112.78 318.458 1116.17 344.083 1116.17 371.202C1116.17 395.611 1113.06 419.884 1106.82 444.015C1100.58 468.15 1090.95 489.845 1077.93 509.103C1064.92 528.351 1048.25 544.078 1027.91 556.285C1007.56 568.487 983.022 574.586 954.277 574.586V574.586ZM1221.93 581.095V344.356C1221.93 321.578 1225.19 299.337 1231.7 277.647C1238.2 255.953 1248.24 236.832 1261.8 220.294C1275.36 203.751 1292.57 190.733 1313.46 181.241C1334.34 171.749 1359.15 167.818 1387.9 169.444V153.175C1362.94 152.638 1341.12 155.343 1322.41 161.31C1303.69 167.276 1287.56 175.411 1274 185.719C1260.44 196.021 1249.59 208.087 1241.46 221.92C1233.33 235.731 1227.3 250.673 1223.56 266.256H1221.93V162.936H1205.66V581.1H1221.93V581.095ZM1408.23 375.27H1758.05C1759.14 346.524 1756.29 318.868 1749.51 292.291C1742.73 265.714 1731.88 242.12 1716.97 221.515C1702.06 200.904 1682.8 184.361 1659.21 171.886C1635.62 159.41 1607.55 153.175 1575.01 153.175C1551.68 153.175 1528.91 158.058 1506.67 167.823C1484.43 177.584 1464.91 191.817 1448.1 210.528C1431.28 229.239 1417.72 252.154 1407.42 279.278C1397.12 306.393 1391.96 337.306 1391.96 372.018C1391.96 402.931 1395.49 431.813 1402.54 458.658C1409.59 485.504 1420.43 508.829 1435.08 528.624C1449.73 548.419 1468.57 563.741 1491.62 574.586C1514.67 585.436 1542.47 590.587 1575.01 590.045C1622.73 590.045 1662.87 576.617 1695.41 549.776C1727.95 522.926 1747.21 485.099 1753.17 436.285H1736.9C1729.85 482.389 1711.82 516.964 1682.8 540.011C1653.78 563.062 1617.31 574.586 1573.38 574.586C1543.55 574.586 1518.33 569.435 1497.72 559.132C1477.11 548.829 1460.3 534.723 1447.28 516.827C1434.27 498.927 1424.64 477.911 1418.4 453.775C1412.16 429.645 1408.77 403.473 1408.23 375.27ZM1741.78 359H1408.24C1409.86 329.713 1415.28 303.409 1424.5 280.089C1433.73 256.764 1445.79 236.832 1460.71 220.294C1475.62 203.751 1492.98 191.144 1512.77 182.462C1532.57 173.785 1553.86 169.444 1576.64 169.444C1603.75 169.444 1627.61 174.464 1648.23 184.498C1668.83 194.532 1686.05 208.229 1699.89 225.582C1713.72 242.936 1724.16 263.141 1731.21 286.187C1738.26 309.239 1741.78 333.512 1741.78 359ZM2095.67 286.598H2111.94C2111.94 239.952 2098.38 206.056 2071.27 184.903C2044.15 163.751 2007.27 153.175 1960.63 153.175C1934.59 153.175 1912.63 156.432 1894.73 162.94C1876.83 169.444 1862.19 177.853 1850.8 188.155C1839.41 198.458 1831.27 209.85 1826.39 222.325C1821.51 234.801 1819.07 246.734 1819.07 258.121C1819.07 280.899 1823.13 299.068 1831.27 312.628C1839.41 326.188 1852.15 336.764 1869.51 344.356C1881.44 349.776 1895 354.659 1910.19 359.005C1925.37 363.341 1943 367.95 1963.07 372.828C1980.96 377.174 1998.59 381.51 2015.95 385.846C2033.3 390.187 2048.62 396.017 2061.91 403.336C2075.2 410.66 2086.04 420.016 2094.45 431.407C2102.86 442.794 2107.06 457.711 2107.06 476.148C2107.06 494.049 2102.86 509.234 2094.45 521.705C2086.12 534.116 2075.14 544.534 2062.32 552.218C2049.3 560.079 2034.79 565.772 2018.79 569.298C2002.79 572.823 1987.2 574.586 1972.02 574.586C1922.66 574.586 1884.83 563.604 1858.53 541.642C1832.22 519.674 1819.07 485.099 1819.07 437.911H1802.8C1802.8 490.523 1817.04 529.029 1845.51 553.438C1873.98 577.843 1916.15 590.045 1972.02 590.045C1989.91 590.045 2007.94 588.009 2026.12 583.941C2044.28 579.874 2060.56 573.233 2074.93 564.01C2089.17 554.917 2101.14 542.671 2109.91 528.219C2118.86 513.57 2123.34 495.675 2123.34 474.522C2123.34 454.454 2119.4 438.185 2111.54 425.709C2103.67 413.238 2093.37 402.931 2080.62 394.796C2067.88 386.661 2053.51 380.289 2037.5 375.68C2021.41 371.043 2005.28 366.567 1989.1 362.252C1969.18 357.028 1949.25 351.876 1929.3 346.798C1912.22 342.457 1896.36 337.306 1881.71 331.339C1867.61 325.372 1856.36 316.832 1847.95 305.714C1839.54 294.596 1835.34 278.731 1835.34 258.121C1835.34 254.327 1836.43 247.545 1838.59 237.784C1840.76 228.019 1845.92 218.121 1854.05 208.087C1862.19 198.058 1874.66 189.107 1891.47 181.241C1908.29 173.38 1931.34 169.444 1960.63 169.444C1980.69 169.444 1998.99 171.617 2015.54 175.953C2032.08 180.294 2046.32 187.208 2058.25 196.7C2070.18 206.192 2079.4 218.258 2085.91 232.901C2092.42 247.55 2095.67 265.445 2095.67 286.598V286.598ZM2472.34 286.598H2488.61C2488.61 239.952 2475.05 206.056 2447.93 184.903C2420.82 163.751 2383.94 153.175 2337.29 153.175C2311.26 153.175 2289.29 156.432 2271.4 162.94C2253.5 169.444 2238.85 177.853 2227.47 188.155C2216.07 198.458 2207.94 209.85 2203.06 222.325C2198.17 234.801 2195.74 246.734 2195.74 258.121C2195.74 280.899 2199.8 299.068 2207.94 312.628C2216.07 326.188 2228.82 336.764 2246.18 344.356C2258.11 349.776 2271.66 354.659 2286.85 359.005C2302.04 363.341 2319.66 367.95 2339.73 372.828C2357.63 377.174 2375.26 381.51 2392.61 385.846C2409.97 390.187 2425.29 396.017 2438.58 403.336C2451.87 410.66 2462.71 420.016 2471.12 431.407C2479.53 442.794 2483.73 457.711 2483.73 476.148C2483.73 494.049 2479.53 509.234 2471.12 521.705C2462.78 534.115 2451.81 544.534 2438.99 552.218C2425.97 560.079 2411.46 565.772 2395.46 569.298C2379.46 572.823 2363.87 574.586 2348.68 574.586C2299.33 574.586 2261.5 563.604 2235.2 541.642C2208.89 519.674 2195.74 485.099 2195.74 437.911H2179.47C2179.47 490.523 2193.7 529.029 2222.18 553.438C2250.65 577.843 2292.82 590.045 2348.68 590.045C2366.58 590.045 2384.61 588.009 2402.78 583.941C2420.95 579.874 2437.22 573.233 2451.6 564.01C2465.84 554.917 2477.81 542.671 2486.58 528.219C2495.53 513.57 2500 495.675 2500 474.522C2500 454.454 2496.07 438.185 2488.2 425.709C2480.34 413.238 2470.04 402.931 2457.29 394.796C2444.55 386.661 2430.17 380.289 2414.17 375.68C2398.08 371.043 2381.95 366.567 2365.77 362.252C2345.85 357.028 2325.92 351.876 2305.97 346.798C2288.89 342.457 2273.02 337.306 2258.38 331.339C2244.28 325.372 2233.02 316.832 2224.62 305.714C2216.21 294.596 2212.01 278.731 2212.01 258.121C2212.01 254.327 2213.09 247.545 2215.26 237.784C2217.43 228.019 2222.59 218.121 2230.72 208.087C2238.85 198.058 2251.33 189.107 2268.14 181.241C2284.96 173.38 2308 169.444 2337.29 169.444C2357.36 169.444 2375.66 171.617 2392.21 175.953C2408.75 180.294 2422.98 187.208 2434.92 196.7C2446.85 206.192 2456.07 218.258 2462.58 232.901C2469.09 247.55 2472.34 265.445 2472.34 286.598H2472.34Z" fill="#212121"/>
</svg>
