<svg width="1771" height="2500" viewBox="0 0 1771 2500" fill="none" xmlns="http://www.w3.org/2000/svg">
<path d="M161.169 2299.1L0 491.374H1771L1609.65 2298.82L884.413 2499.88L161.169 2299.1Z" fill="#E44D26"/>
<path d="M885.5 2346.2L1471.52 2183.72L1609.41 639.188H885.5V2346.2Z" fill="#F16529"/>
<path d="M885.5 1309.65H592.126L571.86 1082.61H885.5V860.901H329.551L334.864 920.383L389.354 1531.35H885.5V1309.65ZM885.5 1885.45L884.526 1885.71L637.608 1819.04L621.822 1642.22H399.264L430.329 1990.34L884.486 2116.41L885.5 2116.13V1885.45Z" fill="#EBEBEB"/>
<path d="M164.775 0.114746H277.443V111.43H380.507V0.114746H493.179V337.208H380.507V224.331H277.443V337.208H164.783L164.775 0.114746ZM641.351 111.905H542.167V0.114746H853.272V111.905H754.039V337.208H641.356V111.905H641.351ZM902.638 0.114746H1020.13L1092.4 118.562L1164.6 0.114746H1282.13V337.208H1169.9V170.123L1092.39 289.979H1090.45L1012.88 170.123V337.208H902.634V0.114746H902.638ZM1338.19 0.114746H1450.89V225.788H1609.35V337.208H1338.19V0.114746Z" fill="#FAFAFA"/>
<path d="M884.735 1309.65V1531.35H1157.75L1132.01 1818.9L884.735 1885.63V2116.29L1339.25 1990.34L1342.58 1952.87L1394.69 1369.19L1400.1 1309.65H1340.36H884.735ZM884.735 860.901V1082.61H1420.27L1424.71 1032.78L1434.82 920.383L1440.12 860.901H884.735Z" fill="white"/>
</svg>
