<svg width="1920" height="1080" viewBox="0 0 1920 1080" fill="none" xmlns="http://www.w3.org/2000/svg">
<g clip-path="url(#clip0)">
<rect width="1920" height="1080" fill="white"/>
<path d="M109.896 129L104.456 121.512V129H98.984V105.32H104.456V118.408L109.864 111.144H116.616L109.192 120.104L116.68 129H109.896ZM124.237 105.32V129H118.765V105.32H124.237ZM130.955 109.288C129.995 109.288 129.205 109.011 128.587 108.456C127.989 107.88 127.691 107.176 127.691 106.344C127.691 105.491 127.989 104.787 128.587 104.232C129.205 103.656 129.995 103.368 130.955 103.368C131.893 103.368 132.661 103.656 133.259 104.232C133.877 104.787 134.187 105.491 134.187 106.344C134.187 107.176 133.877 107.88 133.259 108.456C132.661 109.011 131.893 109.288 130.955 109.288ZM133.675 111.144V129H128.203V111.144H133.675ZM148.52 110.952C150.611 110.952 152.275 111.635 153.512 113C154.771 114.344 155.4 116.2 155.4 118.568V129H149.96V119.304C149.96 118.109 149.651 117.181 149.032 116.52C148.414 115.859 147.582 115.528 146.536 115.528C145.491 115.528 144.659 115.859 144.04 116.52C143.422 117.181 143.112 118.109 143.112 119.304V129H137.64V111.144H143.112V113.512C143.667 112.723 144.414 112.104 145.352 111.656C146.291 111.187 147.347 110.952 148.52 110.952ZM161.955 109.288C160.995 109.288 160.205 109.011 159.587 108.456C158.989 107.88 158.691 107.176 158.691 106.344C158.691 105.491 158.989 104.787 159.587 104.232C160.205 103.656 160.995 103.368 161.955 103.368C162.893 103.368 163.661 103.656 164.259 104.232C164.877 104.787 165.187 105.491 165.187 106.344C165.187 107.176 164.877 107.88 164.259 108.456C163.661 109.011 162.893 109.288 161.955 109.288ZM164.675 111.144V129H159.203V111.144H164.675Z" fill="#083884"/>
<path d="M179.552 129L174.112 121.512V129H168.64V105.32H174.112V118.408L179.52 111.144H186.272L178.848 120.104L186.336 129H179.552ZM206.054 111.144V129H200.582V126.568C200.027 127.357 199.27 127.997 198.31 128.488C197.371 128.957 196.326 129.192 195.174 129.192C193.808 129.192 192.603 128.893 191.558 128.296C190.512 127.677 189.702 126.792 189.126 125.64C188.55 124.488 188.262 123.133 188.262 121.576V111.144H193.702V120.84C193.702 122.035 194.011 122.963 194.63 123.624C195.248 124.285 196.08 124.616 197.126 124.616C198.192 124.616 199.035 124.285 199.654 123.624C200.272 122.963 200.582 122.035 200.582 120.84V111.144H206.054Z" fill="#77BFBB"/>
<path d="M1750.46 117H1753.38V93.32H1750.46V117ZM1774.98 108.2C1774.98 102.664 1771.11 99.176 1766.12 99.176C1761.16 99.176 1757.25 102.664 1757.25 108.2C1757.25 113.768 1761.03 117.288 1765.99 117.288C1770.98 117.288 1774.98 113.768 1774.98 108.2ZM1760.23 108.2C1760.23 103.784 1763.01 101.704 1766.08 101.704C1769.09 101.704 1772 103.784 1772 108.2C1772 112.648 1769.03 114.728 1765.99 114.728C1762.95 114.728 1760.23 112.648 1760.23 108.2ZM1777.72 108.168C1777.72 113.608 1781.34 117.288 1786.04 117.288C1789.24 117.288 1791.51 115.592 1792.57 113.704V117.384C1792.57 121.128 1790.23 123.112 1787.13 123.112C1784.25 123.112 1782.17 121.672 1781.53 119.56H1778.65C1779.22 123.304 1782.52 125.64 1787.13 125.64C1792.28 125.64 1795.51 122.216 1795.51 117.384V99.464H1792.57V102.664C1791.54 100.776 1789.24 99.176 1786.04 99.176C1781.34 99.176 1777.72 102.696 1777.72 108.168ZM1792.57 108.2C1792.57 112.328 1789.82 114.728 1786.62 114.728C1783.42 114.728 1780.7 112.296 1780.7 108.168C1780.7 104.04 1783.42 101.704 1786.62 101.704C1789.82 101.704 1792.57 104.136 1792.57 108.2ZM1800.43 117H1803.34V99.464H1800.43V117ZM1801.94 96.616C1802.99 96.616 1803.86 95.752 1803.86 94.632C1803.86 93.512 1802.99 92.648 1801.94 92.648C1800.82 92.648 1799.95 93.512 1799.95 94.632C1799.95 95.752 1800.82 96.616 1801.94 96.616ZM1821.14 117H1824.02V106.664C1824.02 101.64 1820.92 99.144 1816.85 99.144C1814.48 99.144 1812.37 100.136 1811.22 101.96V99.464H1808.31V117H1811.22V107.304C1811.22 103.528 1813.27 101.672 1816.24 101.672C1819.19 101.672 1821.14 103.496 1821.14 107.08V117Z" fill="black"/>
<path d="M1598.38 108.168C1598.38 113.608 1601.99 117.288 1606.66 117.288C1609.9 117.288 1612.17 115.624 1613.22 113.736V117H1616.17V99.464H1613.22V102.664C1612.2 100.84 1609.96 99.176 1606.7 99.176C1601.99 99.176 1598.38 102.696 1598.38 108.168ZM1613.22 108.2C1613.22 112.328 1610.47 114.728 1607.27 114.728C1604.07 114.728 1601.35 112.296 1601.35 108.168C1601.35 104.04 1604.07 101.704 1607.27 101.704C1610.47 101.704 1613.22 104.136 1613.22 108.2ZM1624 102.728V93.32H1621.09V117H1624V113.768C1625.09 115.688 1627.36 117.288 1630.56 117.288C1635.27 117.288 1638.88 113.608 1638.88 108.168C1638.88 102.696 1635.3 99.176 1630.56 99.176C1627.46 99.176 1625.12 100.776 1624 102.728ZM1635.91 108.168C1635.91 112.296 1633.19 114.728 1629.95 114.728C1626.79 114.728 1624 112.328 1624 108.2C1624 104.136 1626.79 101.704 1629.95 101.704C1633.19 101.704 1635.91 104.04 1635.91 108.168ZM1659.35 108.2C1659.35 102.664 1655.48 99.176 1650.49 99.176C1645.53 99.176 1641.63 102.664 1641.63 108.2C1641.63 113.768 1645.4 117.288 1650.36 117.288C1655.35 117.288 1659.35 113.768 1659.35 108.2ZM1644.6 108.2C1644.6 103.784 1647.39 101.704 1650.46 101.704C1653.47 101.704 1656.38 103.784 1656.38 108.2C1656.38 112.648 1653.4 114.728 1650.36 114.728C1647.32 114.728 1644.6 112.648 1644.6 108.2ZM1678.73 99.464H1675.82V109.096C1675.82 112.872 1673.81 114.728 1670.8 114.728C1667.85 114.728 1665.9 112.904 1665.9 109.352V99.464H1663.02V109.736C1663.02 114.76 1666.19 117.256 1670.22 117.256C1672.56 117.256 1674.7 116.232 1675.82 114.408V117H1678.73V99.464ZM1684.29 112.2C1684.29 115.72 1686.05 117 1689.16 117H1691.78V114.536H1689.64C1687.84 114.536 1687.2 113.928 1687.2 112.2V101.864H1691.78V99.464H1687.2V95.048H1684.29V99.464H1682.02V101.864H1684.29V112.2Z" fill="black"/>
<path d="M147.725 641.35V638.35H146V658.45H147.725V649C148.525 650.7 150.425 652.2 153.15 652.2C156.875 652.2 159.65 649.425 159.65 645.15C159.65 640.875 156.875 638.15 153.15 638.15C150.425 638.15 148.525 639.625 147.725 641.35ZM157.875 645.15C157.875 648.6 155.675 650.675 152.8 650.675C150.025 650.675 147.725 648.575 147.725 645.175C147.725 641.775 150.025 639.675 152.8 639.675C155.675 639.675 157.875 641.675 157.875 645.15ZM168.695 639.65C171.22 639.65 173.52 641.25 173.445 644.425H163.845C164.045 641.25 166.22 639.65 168.695 639.65ZM175.02 647.675H173.17C172.67 649.5 171.095 650.725 168.77 650.725C166.22 650.725 163.995 649.05 163.845 645.85H175.17C175.22 645.375 175.22 645.025 175.22 644.475C175.22 641 172.77 638.15 168.77 638.15C164.845 638.15 162.07 640.825 162.07 645.175C162.07 649.5 164.895 652.2 168.77 652.2C172.195 652.2 174.395 650.25 175.02 647.675ZM178.422 652H180.172V633.5H178.422V652ZM183.335 645.15C183.335 649.425 186.11 652.2 189.835 652.2C192.56 652.2 194.46 650.725 195.26 648.975V652H197.01V638.35H195.26V641.35C194.485 639.625 192.61 638.15 189.86 638.15C186.11 638.15 183.335 640.875 183.335 645.15ZM195.26 645.175C195.26 648.575 192.985 650.675 190.185 650.675C187.31 650.675 185.11 648.6 185.11 645.15C185.11 641.675 187.31 639.675 190.185 639.675C192.985 639.675 195.26 641.775 195.26 645.175ZM205.955 650L201.305 638.35H199.38L204.98 651.925L202.33 658.425H204.155L212.255 638.35H210.455L205.955 650ZM213.828 645.15C213.828 649.425 216.603 652.2 220.328 652.2C223.053 652.2 224.953 650.725 225.753 648.975V652H227.503V638.35H225.753V641.35C224.978 639.625 223.103 638.15 220.353 638.15C216.603 638.15 213.828 640.875 213.828 645.15ZM225.753 645.175C225.753 648.575 223.478 650.675 220.678 650.675C217.803 650.675 215.603 648.6 215.603 645.15C215.603 641.675 217.803 639.675 220.678 639.675C223.478 639.675 225.753 641.775 225.753 645.175ZM241.723 652H243.448V644C243.448 640 240.998 638.1 237.898 638.1C235.873 638.1 234.123 638.975 233.248 640.675V638.35H231.498V652H233.248V644.55C233.248 641.225 235.023 639.625 237.573 639.625C240.073 639.625 241.723 641.175 241.723 644.2V652ZM246.518 645.15C246.518 649.425 249.293 652.2 253.018 652.2C255.743 652.2 257.643 650.725 258.443 648.975V652H260.193V638.35H258.443V641.35C257.668 639.625 255.793 638.15 253.043 638.15C249.293 638.15 246.518 640.875 246.518 645.15ZM258.443 645.175C258.443 648.575 256.168 650.675 253.368 650.675C250.493 650.675 248.293 648.6 248.293 645.15C248.293 641.675 250.493 639.675 253.368 639.675C256.168 639.675 258.443 641.775 258.443 645.175ZM274.413 652H276.138V644C276.138 640 273.688 638.1 270.588 638.1C268.563 638.1 266.813 638.975 265.938 640.675V638.35H264.188V652H265.938V644.55C265.938 641.225 267.713 639.625 270.263 639.625C272.763 639.625 274.413 641.175 274.413 644.2V652ZM286.869 652H288.619V645.875L294.244 652H296.619L290.094 645.15L296.569 638.35H294.119L288.619 644.45V633.5H286.869V652ZM304.706 639.65C307.231 639.65 309.531 641.25 309.456 644.425H299.856C300.056 641.25 302.231 639.65 304.706 639.65ZM311.031 647.675H309.181C308.681 649.5 307.106 650.725 304.781 650.725C302.231 650.725 300.006 649.05 299.856 645.85H311.181C311.231 645.375 311.231 645.025 311.231 644.475C311.231 641 308.781 638.15 304.781 638.15C300.856 638.15 298.081 640.825 298.081 645.175C298.081 649.5 300.906 652.2 304.781 652.2C308.206 652.2 310.406 650.25 311.031 647.675ZM323.883 648.375C323.808 643.55 315.733 645.525 315.733 641.825C315.733 640.625 316.883 639.65 318.708 639.65C320.783 639.65 321.908 640.8 322.008 642.325H323.758C323.608 639.7 321.683 638.15 318.758 638.15C315.883 638.15 313.958 639.825 313.958 641.85C313.958 646.975 322.158 645 322.158 648.375C322.158 649.675 321.058 650.725 319.108 650.725C316.883 650.725 315.583 649.65 315.433 648.15H313.633C313.858 650.65 316.033 652.2 319.133 652.2C321.958 652.2 323.883 650.575 323.883 648.375ZM333.002 639.65C335.527 639.65 337.827 641.25 337.752 644.425H328.152C328.352 641.25 330.527 639.65 333.002 639.65ZM339.327 647.675H337.477C336.977 649.5 335.402 650.725 333.077 650.725C330.527 650.725 328.302 649.05 328.152 645.85H339.477C339.527 645.375 339.527 645.025 339.527 644.475C339.527 641 337.077 638.15 333.077 638.15C329.152 638.15 326.377 640.825 326.377 645.175C326.377 649.5 329.202 652.2 333.077 652.2C336.502 652.2 338.702 650.25 339.327 647.675ZM342.729 652H344.479V644.55C344.479 641.225 346.254 639.625 348.804 639.625C351.304 639.625 352.954 641.175 352.954 644.2V652H354.679V644C354.679 640 352.254 638.1 349.229 638.1C347.154 638.1 345.354 639 344.479 640.675V633.5H342.729V652ZM357.749 645.15C357.749 649.425 360.524 652.2 364.249 652.2C366.974 652.2 368.874 650.725 369.674 648.975V652H371.424V638.35H369.674V641.35C368.899 639.625 367.024 638.15 364.274 638.15C360.524 638.15 357.749 640.875 357.749 645.15ZM369.674 645.175C369.674 648.575 367.399 650.675 364.599 650.675C361.724 650.675 359.524 648.6 359.524 645.15C359.524 641.675 361.724 639.675 364.599 639.675C367.399 639.675 369.674 641.775 369.674 645.175ZM375.919 648.3C375.919 651.025 377.194 652 379.569 652H381.444V650.5H379.844C378.269 650.5 377.694 649.975 377.694 648.3V639.825H381.444V638.35H377.694V634.925H375.919V638.35H374.019V639.825H375.919V648.3ZM383.53 645.15C383.53 649.425 386.305 652.2 390.03 652.2C392.755 652.2 394.655 650.725 395.455 648.975V652H397.205V638.35H395.455V641.35C394.68 639.625 392.805 638.15 390.055 638.15C386.305 638.15 383.53 640.875 383.53 645.15ZM395.455 645.175C395.455 648.575 393.18 650.675 390.38 650.675C387.505 650.675 385.305 648.6 385.305 645.15C385.305 641.675 387.505 639.675 390.38 639.675C393.18 639.675 395.455 641.775 395.455 645.175ZM411.425 652H413.15V644C413.15 640 410.7 638.1 407.6 638.1C405.575 638.1 403.825 638.975 402.95 640.675V638.35H401.2V652H402.95V644.55C402.95 641.225 404.725 639.625 407.275 639.625C409.775 639.625 411.425 641.175 411.425 644.2V652ZM425.606 641.35V638.35H423.881V658.45H425.606V649C426.406 650.7 428.306 652.2 431.031 652.2C434.756 652.2 437.531 649.425 437.531 645.15C437.531 640.875 434.756 638.15 431.031 638.15C428.306 638.15 426.406 639.625 425.606 641.35ZM435.756 645.15C435.756 648.6 433.556 650.675 430.681 650.675C427.906 650.675 425.606 648.575 425.606 645.175C425.606 641.775 427.906 639.675 430.681 639.675C433.556 639.675 435.756 641.675 435.756 645.15ZM442.501 644.375C442.501 640.95 444.426 639.925 446.701 639.925H447.176V638.1C444.826 638.1 443.251 639.1 442.501 640.775V638.35H440.751V652H442.501V644.375ZM449.009 645.15C449.009 649.425 451.784 652.2 455.509 652.2C458.234 652.2 460.134 650.725 460.934 648.975V652H462.684V638.35H460.934V641.35C460.159 639.625 458.284 638.15 455.534 638.15C451.784 638.15 449.009 640.875 449.009 645.15ZM460.934 645.175C460.934 648.575 458.659 650.675 455.859 650.675C452.984 650.675 450.784 648.6 450.784 645.15C450.784 641.675 452.984 639.675 455.859 639.675C458.659 639.675 460.934 641.775 460.934 645.175ZM466.679 652H468.429V645.875L474.054 652H476.429L469.904 645.15L476.379 638.35H473.929L468.429 644.45V633.5H466.679V652ZM479.19 648.3C479.19 651.025 480.465 652 482.84 652H484.715V650.5H483.115C481.54 650.5 480.965 649.975 480.965 648.3V639.825H484.715V638.35H480.965V634.925H479.19V638.35H477.29V639.825H479.19V648.3ZM487.602 652H489.352V638.35H487.602V652ZM488.477 635.775C489.177 635.775 489.752 635.225 489.752 634.475C489.752 633.725 489.177 633.2 488.477 633.2C487.777 633.2 487.202 633.725 487.202 634.475C487.202 635.225 487.777 635.775 488.477 635.775ZM502.764 648.375C502.689 643.55 494.614 645.525 494.614 641.825C494.614 640.625 495.764 639.65 497.589 639.65C499.664 639.65 500.789 640.8 500.889 642.325H502.639C502.489 639.7 500.564 638.15 497.639 638.15C494.764 638.15 492.839 639.825 492.839 641.85C492.839 646.975 501.039 645 501.039 648.375C501.039 649.675 499.939 650.725 497.989 650.725C495.764 650.725 494.464 649.65 494.314 648.15H492.514C492.739 650.65 494.914 652.2 498.014 652.2C500.839 652.2 502.764 650.575 502.764 648.375ZM512.119 645.15C512.119 649.425 514.894 652.2 518.644 652.2C521.344 652.2 523.244 650.75 524.044 648.95V652H525.794V633.5H524.044V641.3C523.169 639.5 521.119 638.15 518.669 638.15C514.894 638.15 512.119 640.875 512.119 645.15ZM524.044 645.175C524.044 648.575 521.769 650.675 518.969 650.675C516.094 650.675 513.894 648.6 513.894 645.15C513.894 641.675 516.094 639.675 518.969 639.675C521.769 639.675 524.044 641.775 524.044 645.175ZM528.989 645.15C528.989 649.425 531.764 652.2 535.489 652.2C538.214 652.2 540.114 650.725 540.914 648.975V652H542.664V638.35H540.914V641.35C540.139 639.625 538.264 638.15 535.514 638.15C531.764 638.15 528.989 640.875 528.989 645.15ZM540.914 645.175C540.914 648.575 538.639 650.675 535.839 650.675C532.964 650.675 530.764 648.6 530.764 645.15C530.764 641.675 532.964 639.675 535.839 639.675C538.639 639.675 540.914 641.775 540.914 645.175ZM556.884 652H558.609V644C558.609 640 556.159 638.1 553.059 638.1C551.034 638.1 549.284 638.975 548.409 640.675V638.35H546.659V652H548.409V644.55C548.409 641.225 550.184 639.625 552.734 639.625C555.234 639.625 556.884 641.175 556.884 644.2V652ZM589.29 652H591.015V644C591.015 640 588.615 638.1 585.59 638.1C583.415 638.1 581.415 639.225 580.665 641.45C579.84 639.175 577.89 638.1 575.615 638.1C573.69 638.1 571.965 638.975 571.09 640.7V638.35H569.34V652H571.09V644.6C571.09 641.275 572.815 639.625 575.315 639.625C577.74 639.625 579.34 641.175 579.34 644.2V652H581.065V644.6C581.065 641.275 582.815 639.625 585.29 639.625C587.715 639.625 589.29 641.175 589.29 644.2V652ZM606.726 638.35H604.976V645.775C604.976 649.1 603.201 650.7 600.651 650.7C598.151 650.7 596.501 649.15 596.501 646.125V638.35H594.776V646.325C594.776 650.325 597.226 652.225 600.326 652.225C602.351 652.225 604.151 651.325 604.976 649.6V652H606.726V638.35ZM609.922 645.15C609.922 649.425 612.697 652.2 616.447 652.2C619.147 652.2 621.047 650.75 621.847 648.95V652H623.597V633.5H621.847V641.3C620.972 639.5 618.922 638.15 616.472 638.15C612.697 638.15 609.922 640.875 609.922 645.15ZM621.847 645.175C621.847 648.575 619.572 650.675 616.772 650.675C613.897 650.675 611.697 648.6 611.697 645.15C611.697 641.675 613.897 639.675 616.772 639.675C619.572 639.675 621.847 641.775 621.847 645.175ZM626.792 645.15C626.792 649.425 629.567 652.2 633.292 652.2C636.017 652.2 637.917 650.725 638.717 648.975V652H640.467V638.35H638.717V641.35C637.942 639.625 636.067 638.15 633.317 638.15C629.567 638.15 626.792 640.875 626.792 645.15ZM638.717 645.175C638.717 648.575 636.442 650.675 633.642 650.675C630.767 650.675 628.567 648.6 628.567 645.15C628.567 641.675 630.767 639.675 633.642 639.675C636.442 639.675 638.717 641.775 638.717 645.175ZM644.462 652H646.212V644.55C646.212 641.225 647.987 639.625 650.537 639.625C653.037 639.625 654.687 641.175 654.687 644.2V652H656.412V644C656.412 640 653.987 638.1 650.962 638.1C648.887 638.1 647.087 639 646.212 640.675V633.5H644.462V652ZM666.343 645.15C666.343 649.425 669.118 652.2 672.868 652.2C675.568 652.2 677.468 650.75 678.268 648.95V652H680.018V633.5H678.268V641.3C677.393 639.5 675.343 638.15 672.893 638.15C669.118 638.15 666.343 640.875 666.343 645.15ZM678.268 645.175C678.268 648.575 675.993 650.675 673.193 650.675C670.318 650.675 668.118 648.6 668.118 645.15C668.118 641.675 670.318 639.675 673.193 639.675C675.993 639.675 678.268 641.775 678.268 645.175ZM684.013 652H685.763V638.35H684.013V652ZM684.888 635.775C685.588 635.775 686.163 635.225 686.163 634.475C686.163 633.725 685.588 633.2 684.888 633.2C684.188 633.2 683.613 633.725 683.613 634.475C683.613 635.225 684.188 635.775 684.888 635.775ZM688.926 645.15C688.926 649.425 691.701 652.2 695.451 652.2C698.151 652.2 700.051 650.725 700.851 648.975V652.35C700.851 655.45 698.826 657.175 696.226 657.175C693.726 657.175 692.001 655.9 691.426 654.05H689.701C690.251 656.9 692.701 658.7 696.226 658.7C699.976 658.7 702.601 656.175 702.601 652.35V638.35H700.851V641.325C700.076 639.6 698.151 638.15 695.451 638.15C691.701 638.15 688.926 640.875 688.926 645.15ZM700.851 645.175C700.851 648.575 698.576 650.675 695.776 650.675C692.901 650.675 690.701 648.6 690.701 645.15C690.701 641.675 692.901 639.675 695.776 639.675C698.576 639.675 700.851 641.775 700.851 645.175ZM718.421 638.35H716.671V645.775C716.671 649.1 714.896 650.7 712.346 650.7C709.846 650.7 708.196 649.15 708.196 646.125V638.35H706.471V646.325C706.471 650.325 708.921 652.225 712.021 652.225C714.046 652.225 715.846 651.325 716.671 649.6V652H718.421V638.35ZM732.641 652H734.366V644C734.366 640 731.916 638.1 728.816 638.1C726.791 638.1 725.041 638.975 724.166 640.675V638.35H722.416V652H724.166V644.55C724.166 641.225 725.941 639.625 728.491 639.625C730.991 639.625 732.641 641.175 732.641 644.2V652ZM737.436 645.15C737.436 649.425 740.211 652.2 743.936 652.2C746.661 652.2 748.561 650.725 749.361 648.975V652H751.111V638.35H749.361V641.35C748.586 639.625 746.711 638.15 743.961 638.15C740.211 638.15 737.436 640.875 737.436 645.15ZM749.361 645.175C749.361 648.575 747.086 650.675 744.286 650.675C741.411 650.675 739.211 648.6 739.211 645.15C739.211 641.675 741.411 639.675 744.286 639.675C747.086 639.675 749.361 641.775 749.361 645.175ZM755.106 652H756.856V645.875L762.481 652H764.856L758.331 645.15L764.806 638.35H762.356L756.856 644.45V633.5H755.106V652ZM766.318 645.15C766.318 649.425 769.093 652.2 772.818 652.2C775.543 652.2 777.443 650.725 778.243 648.975V652H779.993V638.35H778.243V641.35C777.468 639.625 775.593 638.15 772.843 638.15C769.093 638.15 766.318 640.875 766.318 645.15ZM778.243 645.175C778.243 648.575 775.968 650.675 773.168 650.675C770.293 650.675 768.093 648.6 768.093 645.15C768.093 641.675 770.293 639.675 773.168 639.675C775.968 639.675 778.243 641.775 778.243 645.175ZM794.213 652H795.938V644C795.938 640 793.488 638.1 790.388 638.1C788.363 638.1 786.613 638.975 785.738 640.675V638.35H783.988V652H785.738V644.55C785.738 641.225 787.513 639.625 790.063 639.625C792.563 639.625 794.213 641.175 794.213 644.2V652ZM801.359 650.825C801.359 650.1 800.809 649.55 800.109 649.55C799.384 649.55 798.834 650.1 798.834 650.825C798.834 651.55 799.384 652.125 800.109 652.125C800.809 652.125 801.359 651.55 801.359 650.825ZM146 690H147.75V682.55C147.75 679.225 149.525 677.625 152.075 677.625C154.575 677.625 156.225 679.175 156.225 682.2V690H157.95V682C157.95 678 155.525 676.1 152.5 676.1C150.425 676.1 148.625 677 147.75 678.675V671.5H146V690ZM173.645 676.35H171.895V683.775C171.895 687.1 170.12 688.7 167.57 688.7C165.07 688.7 163.42 687.15 163.42 684.125V676.35H161.695V684.325C161.695 688.325 164.145 690.225 167.245 690.225C169.27 690.225 171.07 689.325 171.895 687.6V690H173.645V676.35ZM179.366 679.375V671.5H177.641V690H179.366V687C180.191 688.775 182.066 690.2 184.791 690.2C188.516 690.2 191.291 687.425 191.291 683.15C191.291 678.875 188.541 676.15 184.791 676.15C182.116 676.15 180.216 677.575 179.366 679.375ZM189.516 683.15C189.516 686.6 187.316 688.675 184.441 688.675C181.666 688.675 179.366 686.575 179.366 683.175C179.366 679.775 181.666 677.675 184.441 677.675C187.316 677.675 189.516 679.675 189.516 683.15ZM206.336 676.35H204.586V683.775C204.586 687.1 202.811 688.7 200.261 688.7C197.761 688.7 196.111 687.15 196.111 684.125V676.35H194.386V684.325C194.386 688.325 196.836 690.225 199.936 690.225C201.961 690.225 203.761 689.325 204.586 687.6V690H206.336V676.35ZM220.556 690H222.281V682C222.281 678 219.831 676.1 216.731 676.1C214.706 676.1 212.956 676.975 212.081 678.675V676.35H210.331V690H212.081V682.55C212.081 679.225 213.856 677.625 216.406 677.625C218.906 677.625 220.556 679.175 220.556 682.2V690ZM225.351 683.15C225.351 687.425 228.126 690.2 231.876 690.2C234.576 690.2 236.476 688.725 237.276 686.975V690.35C237.276 693.45 235.251 695.175 232.651 695.175C230.151 695.175 228.426 693.9 227.851 692.05H226.126C226.676 694.9 229.126 696.7 232.651 696.7C236.401 696.7 239.026 694.175 239.026 690.35V676.35H237.276V679.325C236.501 677.6 234.576 676.15 231.876 676.15C228.126 676.15 225.351 678.875 225.351 683.15ZM237.276 683.175C237.276 686.575 235.001 688.675 232.201 688.675C229.326 688.675 227.126 686.6 227.126 683.15C227.126 679.675 229.326 677.675 232.201 677.675C235.001 677.675 237.276 679.775 237.276 683.175ZM243.021 690H244.771V676.35H243.021V690ZM243.896 673.775C244.596 673.775 245.171 673.225 245.171 672.475C245.171 671.725 244.596 671.2 243.896 671.2C243.196 671.2 242.621 671.725 242.621 672.475C242.621 673.225 243.196 673.775 243.896 673.775ZM254.795 683.15C254.795 687.425 257.57 690.2 261.32 690.2C264.02 690.2 265.92 688.75 266.72 686.95V690H268.47V671.5H266.72V679.3C265.845 677.5 263.795 676.15 261.345 676.15C257.57 676.15 254.795 678.875 254.795 683.15ZM266.72 683.175C266.72 686.575 264.445 688.675 261.645 688.675C258.77 688.675 256.57 686.6 256.57 683.15C256.57 679.675 258.77 677.675 261.645 677.675C264.445 677.675 266.72 679.775 266.72 683.175ZM285.315 683.175C285.315 678.825 282.34 676.15 278.49 676.15C274.665 676.15 271.665 678.825 271.665 683.175C271.665 687.5 274.59 690.2 278.44 690.2C282.29 690.2 285.315 687.5 285.315 683.175ZM273.44 683.175C273.44 679.425 275.865 677.675 278.465 677.675C281.065 677.675 283.515 679.425 283.515 683.175C283.515 686.925 281.015 688.675 278.44 688.675C275.84 688.675 273.44 686.925 273.44 683.175ZM288.505 690H290.255V683.875L295.88 690H298.255L291.73 683.15L298.205 676.35H295.755L290.255 682.45V671.5H288.505V690ZM301.017 686.3C301.017 689.025 302.292 690 304.667 690H306.542V688.5H304.942C303.367 688.5 302.792 687.975 302.792 686.3V677.825H306.542V676.35H302.792V672.925H301.017V676.35H299.117V677.825H301.017V686.3ZM315.253 677.65C317.778 677.65 320.078 679.25 320.003 682.425H310.403C310.603 679.25 312.778 677.65 315.253 677.65ZM321.578 685.675H319.728C319.228 687.5 317.653 688.725 315.328 688.725C312.778 688.725 310.553 687.05 310.403 683.85H321.728C321.778 683.375 321.778 683.025 321.778 682.475C321.778 679 319.328 676.15 315.328 676.15C311.403 676.15 308.628 678.825 308.628 683.175C308.628 687.5 311.453 690.2 315.328 690.2C318.753 690.2 320.953 688.25 321.578 685.675ZM326.729 682.375C326.729 678.95 328.654 677.925 330.929 677.925H331.404V676.1C329.054 676.1 327.479 677.1 326.729 678.775V676.35H324.979V690H326.729V682.375ZM340.097 683.15C340.097 687.425 342.872 690.2 346.597 690.2C349.322 690.2 351.222 688.725 352.022 686.975V690H353.772V676.35H352.022V679.35C351.247 677.625 349.372 676.15 346.622 676.15C342.872 676.15 340.097 678.875 340.097 683.15ZM352.022 683.175C352.022 686.575 349.747 688.675 346.947 688.675C344.072 688.675 341.872 686.6 341.872 683.15C341.872 679.675 344.072 677.675 346.947 677.675C349.747 677.675 352.022 679.775 352.022 683.175ZM367.993 690H369.718V682C369.718 678 367.268 676.1 364.168 676.1C362.143 676.1 360.393 676.975 359.518 678.675V676.35H357.768V690H359.518V682.55C359.518 679.225 361.293 677.625 363.843 677.625C366.343 677.625 367.993 679.175 367.993 682.2V690ZM372.788 683.15C372.788 687.425 375.563 690.2 379.313 690.2C382.013 690.2 383.913 688.75 384.713 686.95V690H386.463V671.5H384.713V679.3C383.838 677.5 381.788 676.15 379.338 676.15C375.563 676.15 372.788 678.875 372.788 683.15ZM384.713 683.175C384.713 686.575 382.438 688.675 379.638 688.675C376.763 688.675 374.563 686.6 374.563 683.15C374.563 679.675 376.763 677.675 379.638 677.675C382.438 677.675 384.713 679.775 384.713 683.175ZM389.658 683.15C389.658 687.425 392.433 690.2 396.158 690.2C398.883 690.2 400.783 688.725 401.583 686.975V690H403.333V676.35H401.583V679.35C400.808 677.625 398.933 676.15 396.183 676.15C392.433 676.15 389.658 678.875 389.658 683.15ZM401.583 683.175C401.583 686.575 399.308 688.675 396.508 688.675C393.633 688.675 391.433 686.6 391.433 683.15C391.433 679.675 393.633 677.675 396.508 677.675C399.308 677.675 401.583 679.775 401.583 683.175ZM414.188 690H415.938V683.875L421.563 690H423.938L417.413 683.15L423.888 676.35H421.438L415.938 682.45V671.5H414.188V690ZM425.4 683.15C425.4 687.425 428.175 690.2 431.9 690.2C434.625 690.2 436.525 688.725 437.325 686.975V690H439.075V676.35H437.325V679.35C436.55 677.625 434.675 676.15 431.925 676.15C428.175 676.15 425.4 678.875 425.4 683.15ZM437.325 683.175C437.325 686.575 435.05 688.675 432.25 688.675C429.375 688.675 427.175 686.6 427.175 683.15C427.175 679.675 429.375 677.675 432.25 677.675C435.05 677.675 437.325 679.775 437.325 683.175ZM444.795 679.35V676.35H443.07V696.45H444.795V687C445.595 688.7 447.495 690.2 450.22 690.2C453.945 690.2 456.72 687.425 456.72 683.15C456.72 678.875 453.945 676.15 450.22 676.15C447.495 676.15 445.595 677.625 444.795 679.35ZM454.945 683.15C454.945 686.6 452.745 688.675 449.87 688.675C447.095 688.675 444.795 686.575 444.795 683.175C444.795 679.775 447.095 677.675 449.87 677.675C452.745 677.675 454.945 679.675 454.945 683.15ZM459.14 683.15C459.14 687.425 461.915 690.2 465.64 690.2C468.365 690.2 470.265 688.725 471.065 686.975V690H472.815V676.35H471.065V679.35C470.29 677.625 468.415 676.15 465.665 676.15C461.915 676.15 459.14 678.875 459.14 683.15ZM471.065 683.175C471.065 686.575 468.79 688.675 465.99 688.675C463.115 688.675 460.915 686.6 460.915 683.15C460.915 679.675 463.115 677.675 465.99 677.675C468.79 677.675 471.065 679.775 471.065 683.175ZM487.036 690H488.761V682C488.761 678 486.311 676.1 483.211 676.1C481.186 676.1 479.436 676.975 478.561 678.675V676.35H476.811V690H478.561V682.55C478.561 679.225 480.336 677.625 482.886 677.625C485.386 677.625 487.036 679.175 487.036 682.2V690ZM508.941 686.375C508.866 681.55 500.791 683.525 500.791 679.825C500.791 678.625 501.941 677.65 503.766 677.65C505.841 677.65 506.966 678.8 507.066 680.325H508.816C508.666 677.7 506.741 676.15 503.816 676.15C500.941 676.15 499.016 677.825 499.016 679.85C499.016 684.975 507.216 683 507.216 686.375C507.216 687.675 506.116 688.725 504.166 688.725C501.941 688.725 500.641 687.65 500.491 686.15H498.691C498.916 688.65 501.091 690.2 504.191 690.2C507.016 690.2 508.941 688.575 508.941 686.375ZM511.435 683.15C511.435 687.425 514.21 690.2 517.935 690.2C520.66 690.2 522.56 688.725 523.36 686.975V690H525.11V676.35H523.36V679.35C522.585 677.625 520.71 676.15 517.96 676.15C514.21 676.15 511.435 678.875 511.435 683.15ZM523.36 683.175C523.36 686.575 521.085 688.675 518.285 688.675C515.41 688.675 513.21 686.6 513.21 683.15C513.21 679.675 515.41 677.675 518.285 677.675C521.085 677.675 523.36 679.775 523.36 683.175ZM530.105 673.775C530.805 673.775 531.355 673.225 531.355 672.475C531.355 671.725 530.805 671.2 530.105 671.2C529.405 671.2 528.83 671.725 528.83 672.475C528.83 673.225 529.405 673.775 530.105 673.775ZM529.205 676.35V693.15C529.205 694.475 528.68 694.95 527.38 694.95H526.43V696.45H527.655C529.855 696.45 530.955 695.425 530.955 693.225V676.35H529.205ZM534.165 683.15C534.165 687.425 536.94 690.2 540.665 690.2C543.39 690.2 545.29 688.725 546.09 686.975V690H547.84V676.35H546.09V679.35C545.315 677.625 543.44 676.15 540.69 676.15C536.94 676.15 534.165 678.875 534.165 683.15ZM546.09 683.175C546.09 686.575 543.815 688.675 541.015 688.675C538.14 688.675 535.94 686.6 535.94 683.15C535.94 679.675 538.14 677.675 541.015 677.675C543.815 677.675 546.09 679.775 546.09 683.175ZM557.895 683.15C557.895 687.425 560.67 690.2 564.42 690.2C567.12 690.2 569.02 688.75 569.82 686.95V690H571.57V671.5H569.82V679.3C568.945 677.5 566.895 676.15 564.445 676.15C560.67 676.15 557.895 678.875 557.895 683.15ZM569.82 683.175C569.82 686.575 567.545 688.675 564.745 688.675C561.87 688.675 559.67 686.6 559.67 683.15C559.67 679.675 561.87 677.675 564.745 677.675C567.545 677.675 569.82 679.775 569.82 683.175ZM574.765 683.15C574.765 687.425 577.54 690.2 581.265 690.2C583.99 690.2 585.89 688.725 586.69 686.975V690H588.44V676.35H586.69V679.35C585.915 677.625 584.04 676.15 581.29 676.15C577.54 676.15 574.765 678.875 574.765 683.15ZM586.69 683.175C586.69 686.575 584.415 688.675 581.615 688.675C578.74 688.675 576.54 686.6 576.54 683.15C576.54 679.675 578.74 677.675 581.615 677.675C584.415 677.675 586.69 679.775 586.69 683.175ZM602.661 690H604.386V682C604.386 678 601.936 676.1 598.836 676.1C596.811 676.1 595.061 676.975 594.186 678.675V676.35H592.436V690H594.186V682.55C594.186 679.225 595.961 677.625 598.511 677.625C601.011 677.625 602.661 679.175 602.661 682.2V690ZM614.316 683.15C614.316 687.425 617.091 690.2 620.841 690.2C623.541 690.2 625.441 688.75 626.241 686.95V690H627.991V671.5H626.241V679.3C625.366 677.5 623.316 676.15 620.866 676.15C617.091 676.15 614.316 678.875 614.316 683.15ZM626.241 683.175C626.241 686.575 623.966 688.675 621.166 688.675C618.291 688.675 616.091 686.6 616.091 683.15C616.091 679.675 618.291 677.675 621.166 677.675C623.966 677.675 626.241 679.775 626.241 683.175ZM631.986 690H633.736V676.35H631.986V690ZM632.861 673.775C633.561 673.775 634.136 673.225 634.136 672.475C634.136 671.725 633.561 671.2 632.861 671.2C632.161 671.2 631.586 671.725 631.586 672.475C631.586 673.225 632.161 673.775 632.861 673.775ZM664.51 690H666.235V682C666.235 678 663.835 676.1 660.81 676.1C658.635 676.1 656.635 677.225 655.885 679.45C655.06 677.175 653.11 676.1 650.835 676.1C648.91 676.1 647.185 676.975 646.31 678.7V676.35H644.56V690H646.31V682.6C646.31 679.275 648.035 677.625 650.535 677.625C652.96 677.625 654.56 679.175 654.56 682.2V690H656.285V682.6C656.285 679.275 658.035 677.625 660.51 677.625C662.935 677.625 664.51 679.175 664.51 682.2V690ZM669.321 683.15C669.321 687.425 672.096 690.2 675.821 690.2C678.546 690.2 680.446 688.725 681.246 686.975V690H682.996V676.35H681.246V679.35C680.471 677.625 678.596 676.15 675.846 676.15C672.096 676.15 669.321 678.875 669.321 683.15ZM681.246 683.175C681.246 686.575 678.971 688.675 676.171 688.675C673.296 688.675 671.096 686.6 671.096 683.15C671.096 679.675 673.296 677.675 676.171 677.675C678.971 677.675 681.246 679.775 681.246 683.175ZM697.216 690H698.941V682C698.941 678 696.491 676.1 693.391 676.1C691.366 676.1 689.616 676.975 688.741 678.675V676.35H686.991V690H688.741V682.55C688.741 679.225 690.516 677.625 693.066 677.625C695.566 677.625 697.216 679.175 697.216 682.2V690ZM702.012 683.15C702.012 687.425 704.787 690.2 708.512 690.2C711.237 690.2 713.137 688.725 713.937 686.975V690H715.687V676.35H713.937V679.35C713.162 677.625 711.287 676.15 708.537 676.15C704.787 676.15 702.012 678.875 702.012 683.15ZM713.937 683.175C713.937 686.575 711.662 688.675 708.862 688.675C705.987 688.675 703.787 686.6 703.787 683.15C703.787 679.675 705.987 677.675 708.862 677.675C711.662 677.675 713.937 679.775 713.937 683.175ZM735.992 686.375C735.917 681.55 727.842 683.525 727.842 679.825C727.842 678.625 728.992 677.65 730.817 677.65C732.892 677.65 734.017 678.8 734.117 680.325H735.867C735.717 677.7 733.792 676.15 730.867 676.15C727.992 676.15 726.067 677.825 726.067 679.85C726.067 684.975 734.267 683 734.267 686.375C734.267 687.675 733.167 688.725 731.217 688.725C728.992 688.725 727.692 687.65 727.542 686.15H725.742C725.967 688.65 728.142 690.2 731.242 690.2C734.067 690.2 735.992 688.575 735.992 686.375ZM738.486 683.15C738.486 687.425 741.261 690.2 744.986 690.2C747.711 690.2 749.611 688.725 750.411 686.975V690H752.161V676.35H750.411V679.35C749.636 677.625 747.761 676.15 745.011 676.15C741.261 676.15 738.486 678.875 738.486 683.15ZM750.411 683.175C750.411 686.575 748.136 688.675 745.336 688.675C742.461 688.675 740.261 686.6 740.261 683.15C740.261 679.675 742.461 677.675 745.336 677.675C748.136 677.675 750.411 679.775 750.411 683.175ZM757.156 673.775C757.856 673.775 758.406 673.225 758.406 672.475C758.406 671.725 757.856 671.2 757.156 671.2C756.456 671.2 755.881 671.725 755.881 672.475C755.881 673.225 756.456 673.775 757.156 673.775ZM756.256 676.35V693.15C756.256 694.475 755.731 694.95 754.431 694.95H753.481V696.45H754.706C756.906 696.45 758.006 695.425 758.006 693.225V676.35H756.256ZM761.216 683.15C761.216 687.425 763.991 690.2 767.716 690.2C770.441 690.2 772.341 688.725 773.141 686.975V690H774.891V676.35H773.141V679.35C772.366 677.625 770.491 676.15 767.741 676.15C763.991 676.15 761.216 678.875 761.216 683.15ZM773.141 683.175C773.141 686.575 770.866 688.675 768.066 688.675C765.191 688.675 762.991 686.6 762.991 683.15C762.991 679.675 765.191 677.675 768.066 677.675C770.866 677.675 773.141 679.775 773.141 683.175Z" fill="black"/>
<path d="M145.98 785.2C145.98 791.36 149.795 795.28 154.59 795.28C157.46 795.28 159.525 793.915 160.61 792.2V794.965C160.61 798.255 158.825 799.445 156.55 799.445C154.485 799.445 153.015 798.5 152.63 797.03H146.715C147.24 801.685 151.02 804.625 156.83 804.625C163.585 804.625 166.595 800.18 166.595 794.965V775.47H160.61V778.235C159.56 776.485 157.46 775.19 154.59 775.19C149.795 775.19 145.98 779.04 145.98 785.2ZM160.61 785.235C160.61 788.35 158.615 790.065 156.34 790.065C154.1 790.065 152.07 788.315 152.07 785.2C152.07 782.085 154.1 780.405 156.34 780.405C158.615 780.405 160.61 782.12 160.61 785.235ZM179.535 779.985C181.53 779.985 183.21 781.21 183.21 783.345H175.72C176.07 781.175 177.575 779.985 179.535 779.985ZM188.88 788.525H182.51C182.02 789.575 181.075 790.415 179.395 790.415C177.47 790.415 175.895 789.225 175.685 786.67H189.23C189.3 786.075 189.335 785.48 189.335 784.92C189.335 778.97 185.31 775.19 179.605 775.19C173.795 775.19 169.735 779.04 169.735 785.235C169.735 791.43 173.865 795.28 179.605 795.28C184.47 795.28 187.935 792.34 188.88 788.525ZM193.437 788.21C193.437 793.285 196.272 795 200.332 795H203.377V789.925H201.242C199.912 789.925 199.422 789.435 199.422 788.28V780.44H203.342V775.47H199.422V770.71H193.437V775.47H191.057V780.44H193.437V788.21ZM229.983 789.33C229.878 782.05 219.308 784.255 219.308 781.14C219.308 780.195 220.078 779.635 221.478 779.635C223.158 779.635 224.173 780.51 224.348 781.84H229.878C229.493 777.99 226.693 775.19 221.653 775.19C216.543 775.19 213.708 777.92 213.708 781.245C213.708 788.42 224.348 786.145 224.348 789.295C224.348 790.17 223.543 790.87 222.003 790.87C220.358 790.87 219.133 789.96 218.993 788.595H213.078C213.358 792.375 216.858 795.28 222.073 795.28C226.973 795.28 229.983 792.725 229.983 789.33ZM234.59 788.21C234.59 793.285 237.425 795 241.485 795H244.53V789.925H242.395C241.065 789.925 240.575 789.435 240.575 788.28V780.44H244.495V775.47H240.575V770.71H234.59V775.47H232.21V780.44H234.59V788.21ZM246.673 785.2C246.673 791.36 250.488 795.28 255.248 795.28C258.153 795.28 260.218 793.95 261.303 792.235V795H267.288V775.47H261.303V778.235C260.253 776.52 258.188 775.19 255.283 775.19C250.488 775.19 246.673 779.04 246.673 785.2ZM261.303 785.235C261.303 788.35 259.308 790.065 257.033 790.065C254.793 790.065 252.763 788.315 252.763 785.2C252.763 782.085 254.793 780.405 257.033 780.405C259.308 780.405 261.303 782.12 261.303 785.235ZM277.603 785.935C277.603 782.575 279.248 781.595 282.083 781.595H283.728V775.26C281.103 775.26 278.968 776.66 277.603 778.725V775.47H271.618V795H277.603V785.935ZM287.534 788.21C287.534 793.285 290.369 795 294.429 795H297.474V789.925H295.339C294.009 789.925 293.519 789.435 293.519 788.28V780.44H297.439V775.47H293.519V770.71H287.534V775.47H285.154V780.44H287.534V788.21ZM309.418 779.985C311.413 779.985 313.093 781.21 313.093 783.345H305.603C305.953 781.175 307.458 779.985 309.418 779.985ZM318.763 788.525H312.393C311.903 789.575 310.958 790.415 309.278 790.415C307.353 790.415 305.778 789.225 305.568 786.67H319.113C319.183 786.075 319.218 785.48 319.218 784.92C319.218 778.97 315.193 775.19 309.488 775.19C303.678 775.19 299.618 779.04 299.618 785.235C299.618 791.43 303.748 795.28 309.488 795.28C314.353 795.28 317.818 792.34 318.763 788.525ZM321.185 785.2C321.185 791.36 325 795.28 329.795 795.28C332.665 795.28 334.73 793.985 335.815 792.2V795H341.8V769.1H335.815V778.165C334.625 776.38 332.385 775.19 329.795 775.19C325 775.19 321.185 779.04 321.185 785.2ZM335.815 785.235C335.815 788.35 333.82 790.065 331.545 790.065C329.305 790.065 327.275 788.315 327.275 785.2C327.275 782.085 329.305 780.405 331.545 780.405C333.82 780.405 335.815 782.12 335.815 785.235Z" fill="#F69B00"/>
<path d="M379.844 799.938L383.531 803.625L404.156 783L383.531 762.375L379.844 766.063L396.781 783L379.844 799.938V799.938Z" fill="#F18703"/>
<path d="M170.518 339.826H160.012V387H148.167V339.826H141.472V330.247H148.167V326.23C148.167 319.707 149.884 314.969 153.317 312.016C156.819 308.995 162.278 307.484 169.694 307.484V317.269C166.123 317.269 163.617 317.956 162.175 319.329C160.733 320.634 160.012 322.934 160.012 326.23V330.247H170.518V339.826ZM232.939 357.233C232.939 359.362 232.802 361.284 232.527 363.001H189.164C189.508 367.533 191.19 371.172 194.211 373.919C197.233 376.666 200.941 378.039 205.335 378.039C211.653 378.039 216.116 375.395 218.725 370.108H231.394C229.678 375.327 226.553 379.618 222.021 382.983C217.558 386.279 211.996 387.927 205.335 387.927C199.911 387.927 195.035 386.725 190.709 384.322C186.452 381.85 183.087 378.417 180.615 374.022C178.212 369.559 177.01 364.409 177.01 358.572C177.01 352.735 178.178 347.62 180.512 343.225C182.916 338.762 186.246 335.328 190.503 332.925C194.829 330.522 199.773 329.32 205.335 329.32C210.691 329.32 215.464 330.487 219.652 332.822C223.841 335.157 227.103 338.453 229.437 342.71C231.772 346.899 232.939 351.74 232.939 357.233ZM220.682 353.525C220.614 349.199 219.069 345.731 216.047 343.122C213.026 340.513 209.284 339.208 204.82 339.208C200.769 339.208 197.301 340.513 194.417 343.122C191.533 345.663 189.817 349.13 189.267 353.525H220.682ZM296.51 357.233C296.51 359.362 296.372 361.284 296.098 363.001H252.735C253.078 367.533 254.76 371.172 257.782 373.919C260.803 376.666 264.511 378.039 268.906 378.039C275.223 378.039 279.686 375.395 282.296 370.108H294.965C293.248 375.327 290.124 379.618 285.592 382.983C281.128 386.279 275.566 387.927 268.906 387.927C263.481 387.927 258.606 386.725 254.28 384.322C250.022 381.85 246.658 378.417 244.186 374.022C241.782 369.559 240.581 364.409 240.581 358.572C240.581 352.735 241.748 347.62 244.083 343.225C246.486 338.762 249.816 335.328 254.074 332.925C258.4 330.522 263.344 329.32 268.906 329.32C274.262 329.32 279.034 330.487 283.223 332.822C287.411 335.157 290.673 338.453 293.008 342.71C295.342 346.899 296.51 351.74 296.51 357.233ZM284.253 353.525C284.184 349.199 282.639 345.731 279.618 343.122C276.596 340.513 272.854 339.208 268.391 339.208C264.339 339.208 260.872 340.513 257.988 343.122C255.104 345.663 253.387 349.13 252.838 353.525H284.253ZM319.807 310.78V387H308.065V310.78H319.807ZM341.197 322.728C339.068 322.728 337.283 322.007 335.841 320.565C334.399 319.123 333.678 317.338 333.678 315.209C333.678 313.08 334.399 311.295 335.841 309.853C337.283 308.411 339.068 307.69 341.197 307.69C343.257 307.69 345.008 308.411 346.45 309.853C347.892 311.295 348.613 313.08 348.613 315.209C348.613 317.338 347.892 319.123 346.45 320.565C345.008 322.007 343.257 322.728 341.197 322.728ZM346.965 330.247V387H335.223V330.247H346.965ZM391.015 329.32C395.479 329.32 399.461 330.247 402.963 332.101C406.534 333.955 409.315 336.702 411.306 340.341C413.298 343.98 414.293 348.375 414.293 353.525V387H402.654V355.276C402.654 350.195 401.384 346.315 398.843 343.637C396.303 340.89 392.835 339.517 388.44 339.517C384.046 339.517 380.544 340.89 377.934 343.637C375.394 346.315 374.123 350.195 374.123 355.276V387H362.381V330.247H374.123V336.736C376.046 334.401 378.484 332.582 381.436 331.277C384.458 329.972 387.651 329.32 391.015 329.32ZM452.137 329.32C456.532 329.32 460.411 330.213 463.776 331.998C467.209 333.715 469.887 335.878 471.81 338.487V330.247H483.655V387.927C483.655 393.146 482.556 397.781 480.359 401.832C478.162 405.952 474.969 409.179 470.78 411.514C466.66 413.849 461.716 415.016 455.948 415.016C448.257 415.016 441.871 413.196 436.79 409.557C431.709 405.986 428.825 401.111 428.138 394.931H439.777C440.67 397.884 442.558 400.253 445.442 402.038C448.395 403.892 451.897 404.819 455.948 404.819C460.686 404.819 464.497 403.377 467.381 400.493C470.334 397.609 471.81 393.42 471.81 387.927V378.451C469.819 381.129 467.106 383.395 463.673 385.249C460.308 387.034 456.463 387.927 452.137 387.927C447.193 387.927 442.661 386.691 438.541 384.219C434.49 381.678 431.262 378.176 428.859 373.713C426.524 369.181 425.357 364.065 425.357 358.366C425.357 352.667 426.524 347.62 428.859 343.225C431.262 338.83 434.49 335.431 438.541 333.028C442.661 330.556 447.193 329.32 452.137 329.32ZM471.81 358.572C471.81 354.658 470.986 351.259 469.338 348.375C467.759 345.491 465.664 343.294 463.055 341.783C460.446 340.272 457.63 339.517 454.609 339.517C451.588 339.517 448.772 340.272 446.163 341.783C443.554 343.225 441.425 345.388 439.777 348.272C438.198 351.087 437.408 354.452 437.408 358.366C437.408 362.28 438.198 365.713 439.777 368.666C441.425 371.619 443.554 373.885 446.163 375.464C448.841 376.975 451.656 377.73 454.609 377.73C457.63 377.73 460.446 376.975 463.055 375.464C465.664 373.953 467.759 371.756 469.338 368.872C470.986 365.919 471.81 362.486 471.81 358.572ZM537.575 338.693C539.567 335.946 542.279 333.715 545.712 331.998C549.214 330.213 553.094 329.32 557.351 329.32C562.364 329.32 566.896 330.522 570.947 332.925C574.999 335.328 578.192 338.762 580.526 343.225C582.861 347.62 584.028 352.667 584.028 358.366C584.028 364.065 582.861 369.181 580.526 373.713C578.192 378.176 574.964 381.678 570.844 384.219C566.793 386.691 562.295 387.927 557.351 387.927C552.957 387.927 549.043 387.069 545.609 385.352C542.245 383.635 539.567 381.438 537.575 378.76V387H525.833V310.78H537.575V338.693ZM572.08 358.366C572.08 354.452 571.256 351.087 569.608 348.272C568.029 345.388 565.9 343.225 563.222 341.783C560.613 340.272 557.798 339.517 554.776 339.517C551.824 339.517 549.008 340.272 546.33 341.783C543.721 343.294 541.592 345.491 539.944 348.375C538.365 351.259 537.575 354.658 537.575 358.572C537.575 362.486 538.365 365.919 539.944 368.872C541.592 371.756 543.721 373.953 546.33 375.464C549.008 376.975 551.824 377.73 554.776 377.73C557.798 377.73 560.613 376.975 563.222 375.464C565.9 373.885 568.029 371.619 569.608 368.666C571.256 365.713 572.08 362.28 572.08 358.366ZM647.655 357.233C647.655 359.362 647.518 361.284 647.243 363.001H603.88C604.223 367.533 605.906 371.172 608.927 373.919C611.948 376.666 615.656 378.039 620.051 378.039C626.368 378.039 630.832 375.395 633.441 370.108H646.11C644.393 375.327 641.269 379.618 636.737 382.983C632.274 386.279 626.712 387.927 620.051 387.927C614.626 387.927 609.751 386.725 605.425 384.322C601.168 381.85 597.803 378.417 595.331 374.022C592.928 369.559 591.726 364.409 591.726 358.572C591.726 352.735 592.893 347.62 595.228 343.225C597.631 338.762 600.962 335.328 605.219 332.925C609.545 330.522 614.489 329.32 620.051 329.32C625.407 329.32 630.179 330.487 634.368 332.822C638.557 335.157 641.818 338.453 644.153 342.71C646.488 346.899 647.655 351.74 647.655 357.233ZM635.398 353.525C635.329 349.199 633.784 345.731 630.763 343.122C627.742 340.513 623.999 339.208 619.536 339.208C615.485 339.208 612.017 340.513 609.133 343.122C606.249 345.663 604.532 349.13 603.983 353.525H635.398ZM672.909 339.826V371.241C672.909 373.37 673.39 374.915 674.351 375.876C675.381 376.769 677.098 377.215 679.501 377.215H686.711V387H677.441C672.154 387 668.103 385.764 665.287 383.292C662.472 380.82 661.064 376.803 661.064 371.241V339.826H654.369V330.247H661.064V316.136H672.909V330.247H686.711V339.826H672.909ZM711.233 339.826V371.241C711.233 373.37 711.713 374.915 712.675 375.876C713.705 376.769 715.421 377.215 717.825 377.215H725.035V387H715.765C710.477 387 706.426 385.764 703.611 383.292C700.795 380.82 699.388 376.803 699.388 371.241V339.826H692.693V330.247H699.388V316.136H711.233V330.247H725.035V339.826H711.233ZM787.872 357.233C787.872 359.362 787.735 361.284 787.46 363.001H744.097C744.44 367.533 746.123 371.172 749.144 373.919C752.165 376.666 755.873 378.039 760.268 378.039C766.585 378.039 771.049 375.395 773.658 370.108H786.327C784.61 375.327 781.486 379.618 776.954 382.983C772.491 386.279 766.929 387.927 760.268 387.927C754.843 387.927 749.968 386.725 745.642 384.322C741.385 381.85 738.02 378.417 735.548 374.022C733.145 369.559 731.943 364.409 731.943 358.572C731.943 352.735 733.11 347.62 735.445 343.225C737.848 338.762 741.179 335.328 745.436 332.925C749.762 330.522 754.706 329.32 760.268 329.32C765.624 329.32 770.396 330.487 774.585 332.822C778.774 335.157 782.035 338.453 784.37 342.71C786.705 346.899 787.872 351.74 787.872 357.233ZM775.615 353.525C775.546 349.199 774.001 345.731 770.98 343.122C767.959 340.513 764.216 339.208 759.753 339.208C755.702 339.208 752.234 340.513 749.35 343.122C746.466 345.663 744.749 349.13 744.2 353.525H775.615ZM811.169 338.487C812.886 335.603 815.152 333.371 817.967 331.792C820.851 330.144 824.25 329.32 828.164 329.32V341.474H825.177C820.576 341.474 817.074 342.641 814.671 344.976C812.336 347.311 811.169 351.362 811.169 357.13V387H799.427V330.247H811.169V338.487ZM222.945 485.247L205.332 542H192.972L181.539 500.079L170.106 542H157.746L140.03 485.247H151.978L163.823 530.876L175.874 485.247H188.131L199.667 530.67L211.409 485.247H222.945ZM237.694 477.728C235.565 477.728 233.78 477.007 232.338 475.565C230.896 474.123 230.175 472.338 230.175 470.209C230.175 468.08 230.896 466.295 232.338 464.853C233.78 463.411 235.565 462.69 237.694 462.69C239.754 462.69 241.505 463.411 242.947 464.853C244.389 466.295 245.11 468.08 245.11 470.209C245.11 472.338 244.389 474.123 242.947 475.565C241.505 477.007 239.754 477.728 237.694 477.728ZM243.462 485.247V542H231.72V485.247H243.462ZM272.577 494.826V526.241C272.577 528.37 273.058 529.915 274.019 530.876C275.049 531.769 276.766 532.215 279.169 532.215H286.379V542H277.109C271.822 542 267.771 540.764 264.955 538.292C262.14 535.82 260.732 531.803 260.732 526.241V494.826H254.037V485.247H260.732V471.136H272.577V485.247H286.379V494.826H272.577ZM326.557 484.32C330.883 484.32 334.728 485.247 338.093 487.101C341.526 488.955 344.204 491.702 346.127 495.341C348.118 498.98 349.114 503.375 349.114 508.525V542H337.475V510.276C337.475 505.195 336.204 501.315 333.664 498.637C331.123 495.89 327.655 494.517 323.261 494.517C318.866 494.517 315.364 495.89 312.755 498.637C310.214 501.315 308.944 505.195 308.944 510.276V542H297.202V465.78H308.944V491.839C310.935 489.436 313.441 487.582 316.463 486.277C319.553 484.972 322.917 484.32 326.557 484.32Z" fill="black"/>
<path d="M413.301 513.675L439.463 542H423.601L402.589 517.589V542H390.847V465.78H402.589V510.07L423.189 485.247H439.463L413.301 513.675ZM459.621 465.78V542H447.879V465.78H459.621ZM481.012 477.728C478.883 477.728 477.098 477.007 475.656 475.565C474.214 474.123 473.493 472.338 473.493 470.209C473.493 468.08 474.214 466.295 475.656 464.853C477.098 463.411 478.883 462.69 481.012 462.69C483.072 462.69 484.823 463.411 486.265 464.853C487.707 466.295 488.428 468.08 488.428 470.209C488.428 472.338 487.707 474.123 486.265 475.565C484.823 477.007 483.072 477.728 481.012 477.728ZM486.78 485.247V542H475.038V485.247H486.78ZM530.83 484.32C535.293 484.32 539.276 485.247 542.778 487.101C546.348 488.955 549.129 491.702 551.121 495.341C553.112 498.98 554.108 503.375 554.108 508.525V542H542.469V510.276C542.469 505.195 541.198 501.315 538.658 498.637C536.117 495.89 532.649 494.517 528.255 494.517C523.86 494.517 520.358 495.89 517.749 498.637C515.208 501.315 513.938 505.195 513.938 510.276V542H502.196V485.247H513.938V491.736C515.86 489.401 518.298 487.582 521.251 486.277C524.272 484.972 527.465 484.32 530.83 484.32ZM575.059 477.728C572.931 477.728 571.145 477.007 569.703 475.565C568.261 474.123 567.54 472.338 567.54 470.209C567.54 468.08 568.261 466.295 569.703 464.853C571.145 463.411 572.931 462.69 575.059 462.69C577.119 462.69 578.87 463.411 580.312 464.853C581.754 466.295 582.475 468.08 582.475 470.209C582.475 472.338 581.754 474.123 580.312 475.565C578.87 477.007 577.119 477.728 575.059 477.728ZM580.827 485.247V542H569.085V485.247H580.827Z" fill="#083884"/>
<path d="M618.698 513.675L644.86 542H628.998L607.986 517.589V542H596.244V465.78H607.986V510.07L628.586 485.247H644.86L618.698 513.675ZM704.673 485.247V542H692.931V535.305C691.077 537.64 688.639 539.494 685.618 540.867C682.665 542.172 679.506 542.824 676.142 542.824C671.678 542.824 667.661 541.897 664.091 540.043C660.589 538.189 657.808 535.442 655.748 531.803C653.756 528.164 652.761 523.769 652.761 518.619V485.247H664.4V516.868C664.4 521.949 665.67 525.863 668.211 528.61C670.751 531.288 674.219 532.627 678.614 532.627C683.008 532.627 686.476 531.288 689.017 528.61C691.626 525.863 692.931 521.949 692.931 516.868V485.247H704.673Z" fill="#77BFBB"/>
<rect x="1614" y="363" width="307" height="168" fill="#0D7286"/>
<rect x="1306" y="363" width="308" height="168" fill="#164886"/>
<rect x="1005" y="531" width="302" height="168" fill="#77BFBB"/>
<rect x="1307" y="531" width="308" height="168" fill="#77BFBB"/>
<rect x="1614" y="867" width="307" height="54" fill="#F7B702"/>
<rect x="1614" y="921" width="307" height="32" fill="#F99404"/>
<rect x="1306" y="195" width="308" height="168" fill="#0D1931"/>
<path fill-rule="evenodd" clip-rule="evenodd" d="M1377.77 531L1659.23 812.144L1726.58 744.721L1512.62 531H1377.77Z" fill="white"/>
<rect x="1154" y="707" width="451" height="230" fill="#0D7286"/>
<path fill-rule="evenodd" clip-rule="evenodd" d="M1306 261C1306 224.549 1335.55 195 1372 195C1408.45 195 1438 224.549 1438 261V689.292C1438 692.59 1437.76 695.832 1437.29 699H1144.06C1144.02 698.047 1144 697.088 1144 696.125V471.451C1144 435.001 1173.55 405.451 1210 405.451C1214.1 405.451 1218.11 405.825 1222 406.54V353.927C1222 317.476 1251.55 287.927 1288 287.927C1294.24 287.927 1300.28 288.793 1306 290.411V261Z" fill="#0D7286"/>
<circle cx="1634.9" cy="386.897" r="4.89667" fill="white"/>
<circle cx="1673.48" cy="425.18" r="4.89667" fill="white"/>
<circle cx="1673.48" cy="386.897" r="4.89667" fill="white"/>
<circle cx="1634.9" cy="425.18" r="4.89667" fill="white"/>
<circle cx="1712.06" cy="386.897" r="4.89667" fill="white"/>
<circle cx="1750.64" cy="425.18" r="4.89667" fill="white"/>
<circle cx="1750.64" cy="386.897" r="4.89667" fill="white"/>
<circle cx="1712.06" cy="425.18" r="4.89667" fill="white"/>
<circle cx="1634.9" cy="463.463" r="4.89667" fill="white"/>
<circle cx="1673.48" cy="501.746" r="4.89667" fill="white"/>
<circle cx="1673.48" cy="463.463" r="4.89667" fill="white"/>
<circle cx="1634.9" cy="501.746" r="4.89667" fill="white"/>
<circle cx="1712.06" cy="463.463" r="4.89667" fill="white"/>
<circle cx="1750.64" cy="501.746" r="4.89667" fill="white"/>
<circle cx="1712.06" cy="501.746" r="4.89667" fill="white"/>
<circle cx="1789.22" cy="386.897" r="4.89667" fill="white"/>
<circle cx="1827.8" cy="425.18" r="4.89667" fill="white"/>
<circle cx="1827.8" cy="386.897" r="4.89667" fill="white"/>
<circle cx="1789.22" cy="425.18" r="4.89667" fill="white"/>
<circle cx="1866.38" cy="386.897" r="4.89667" fill="white"/>
<circle cx="1904.96" cy="425.18" r="4.89667" fill="white"/>
<circle cx="1904.96" cy="386.897" r="4.89667" fill="white"/>
<circle cx="1866.38" cy="425.18" r="4.89667" fill="white"/>
<circle cx="1827.8" cy="501.746" r="4.89667" fill="white"/>
<circle cx="1827.8" cy="463.463" r="4.89667" fill="white"/>
<circle cx="1789.22" cy="501.746" r="4.89667" fill="white"/>
<circle cx="1866.38" cy="463.463" r="4.89667" fill="white"/>
<circle cx="1904.96" cy="501.746" r="4.89667" fill="white"/>
<circle cx="1904.96" cy="463.463" r="4.89667" fill="white"/>
<circle cx="1866.38" cy="501.746" r="4.89667" fill="white"/>
<path fill-rule="evenodd" clip-rule="evenodd" d="M1770.89 867H1675.05C1673.88 774.106 1691.4 557.454 1770.89 434C1850.38 557.454 1867.9 774.106 1866.73 867H1770.89Z" fill="#77BFBB"/>
<path fill-rule="evenodd" clip-rule="evenodd" d="M1770.89 867H1675.05C1673.88 774.106 1691.4 557.454 1770.89 434C1850.38 557.454 1867.9 774.106 1866.73 867H1770.89Z" fill="url(#paint0_linear)"/>
<path d="M1768.91 867H1614V530C1742.49 626.083 1770.81 794.701 1768.91 867Z" fill="#0D7286"/>
<path d="M1767.09 867H1921V530C1793.34 626.083 1765.2 794.701 1767.09 867Z" fill="#0D7286"/>
<circle cx="1614" cy="447" r="84" fill="#F7B702"/>
<circle cx="1614" cy="446" r="66" transform="rotate(-91.0351 1614 446)" fill="#F7B702"/>
<circle cx="1614" cy="446" r="66" transform="rotate(-91.0351 1614 446)" fill="url(#paint1_linear)"/>
<path d="M1146.91 945H1614L1437.09 1044H969L1146.91 945Z" fill="#D9D8D6"/>
<path d="M1614 945V953L1437 1052V1044L1614 945Z" fill="#929397"/>
<rect x="970" y="1044" width="468" height="8" fill="#C4C4C4"/>
<path fill-rule="evenodd" clip-rule="evenodd" d="M1614 699H1143V945H1614V699ZM1158 710.808H1600V928.272H1158V710.808Z" fill="#2A303B"/>
<g clip-path="url(#clip1)">
<path d="M1579 866.205C1569.23 866.205 1559.37 866.126 1549.6 866.285C1546.42 866.364 1545.54 865.251 1545.54 862.151C1545.62 839.338 1545.7 816.605 1545.54 793.792C1545.54 790.056 1546.66 788.944 1550.47 788.785C1560.01 788.387 1569.46 788.149 1579 789.023C1579 814.777 1579 840.531 1579 866.205Z" fill="white"/>
<path d="M1422.76 796.738C1419.18 793.479 1416.08 789.982 1415.93 784.736C1415.85 782.272 1416.32 781.079 1419.1 781.159C1442.63 781.238 1466.23 780.841 1489.75 781.318C1513.59 781.795 1533.46 802.779 1533.3 826.626C1533.3 830.044 1533.93 833.541 1532.27 836.721C1531.15 838.867 1529.17 839.026 1527.18 839.026C1516.77 839.105 1506.28 839.344 1495.87 838.946C1478.78 838.231 1462.89 822.651 1461.54 805.562C1461.46 804.369 1461.38 803.177 1461.06 802.064C1460.35 799.918 1458.52 800.554 1457.09 800.474C1449.38 800.395 1441.59 800.315 1433.89 800.554C1429.59 800.633 1426.1 799.044 1422.76 796.738Z" fill="#F99404"/>
<path d="M1527.66 837.992C1518.28 837.992 1508.9 837.992 1499.53 837.992C1484.11 837.913 1473.3 830.759 1466.23 817.405C1464 813.192 1463.69 808.503 1462.73 804.051H1430.63C1430.94 805.005 1431.5 805.959 1431.74 806.833C1432.77 811.046 1433.81 815.338 1435.47 819.313C1435.63 819.949 1435.79 820.505 1435.79 821.141C1437.06 826.626 1438.65 832.031 1440.32 837.436C1440.4 838.072 1440.56 838.628 1440.8 839.185C1442.31 844.749 1443.74 850.313 1445.49 855.877C1445.73 856.672 1446.12 857.387 1446.12 858.182C1447.47 863.508 1448.27 868.992 1450.89 873.92C1450.89 873.92 1450.97 873.92 1450.97 874H1488.8C1489.35 874 1489.91 874 1490.47 873.92C1510.97 873.205 1529.64 856.592 1532.27 837.277C1530.84 838.151 1529.25 837.992 1527.66 837.992Z" fill="#F99404"/>
<path d="M1462.33 819.233H1383.18C1378.34 819.233 1374.36 815.259 1374.36 810.41C1374.36 805.562 1378.34 801.587 1383.18 801.587H1462.33C1467.18 801.587 1471.16 805.562 1471.16 810.41C1471.08 815.338 1467.18 819.233 1462.33 819.233Z" fill="#F99404"/>
<path d="M1450.89 837.436H1371.82C1366.97 837.436 1363 833.462 1363 828.613C1363 823.764 1366.97 819.79 1371.82 819.79H1450.97C1455.82 819.79 1459.79 823.764 1459.79 828.613C1459.71 833.462 1455.74 837.436 1450.89 837.436Z" fill="#F99404"/>
<path d="M1465.99 855.718H1386.92C1382.07 855.718 1378.1 851.744 1378.1 846.895C1378.1 842.046 1382.07 838.072 1386.92 838.072H1466.07C1470.92 838.072 1474.89 842.046 1474.89 846.895C1474.81 851.744 1470.84 855.718 1465.99 855.718Z" fill="#F99404"/>
<path d="M1480.29 874.689H1401.22C1396.38 874.689 1392.4 870.715 1392.4 865.866C1392.4 861.017 1396.38 857.043 1401.22 857.043H1480.37C1485.22 857.043 1489.19 861.017 1489.19 865.866C1489.12 870.715 1485.14 874.689 1480.29 874.689Z" fill="#F99404"/>
</g>
<path fill-rule="evenodd" clip-rule="evenodd" d="M1005 493H986.375V512.285L967.09 512.19L967 531H986.375V550H1005V531H1024L1024.09 512.471L1005 512.377V493Z" fill="#F99404"/>
<path d="M1206 869C1206 911.8 1174 928.5 1158 931.5V711H1409.5C1411.83 721.333 1408.7 741.9 1377.5 741.5C1338.5 741 1318.5 760.5 1318.5 785C1318.5 809.5 1295 811 1272.5 811C1250 811 1206 815.5 1206 869Z" fill="#77BFBB"/>
</g>
<defs>
<linearGradient id="paint0_linear" x1="1770.89" y1="434" x2="1770.89" y2="867" gradientUnits="userSpaceOnUse">
<stop stop-color="#77BFBB"/>
<stop offset="1" stop-color="#0D7286"/>
</linearGradient>
<linearGradient id="paint1_linear" x1="1614" y1="380" x2="1614" y2="512" gradientUnits="userSpaceOnUse">
<stop stop-color="#EE9000"/>
<stop offset="1" stop-color="#F7B702"/>
</linearGradient>
<clipPath id="clip0">
<rect width="1920" height="1080" fill="white"/>
</clipPath>
<clipPath id="clip1">
<rect width="209" height="93" fill="white" transform="translate(1363 781)"/>
</clipPath>
</defs>
</svg>
