<?xml version="1.0" encoding="utf-8"?>
<!-- Generator: Adobe Illustrator 22.1.0, SVG Export Plug-In . SVG Version: 6.00 Build 0)  -->
<svg version="1.1" id="Layer_1" xmlns="http://www.w3.org/2000/svg" xmlns:xlink="http://www.w3.org/1999/xlink" x="0px" y="0px"
	 viewBox="0 0 373.8 315.2" style="enable-background:new 0 0 373.8 315.2;" xml:space="preserve">
<style type="text/css">
	.st0{fill:none;stroke:#FFFFFF;stroke-width:7;stroke-miterlimit:10;}
</style>
<title>image</title>
<g id="Layer_2_1_">
	<g id="Layer_1-2">
		<path class="st0" d="M23.2,26.4l248-22.8l1,0.6l21.2,51l-0.9,1.4L98.7,71.9l-0.9,1.3l56.3,153.1l1,0.6l136.9-10.8l0.9-1.3
			l-17.3-48l-1-0.6l-58.5,4.9l-1-0.7l-17.4-50.1l0.9-1.3l112-9.8l1,0.6l58.3,152l-0.9,1.4L121.1,284l-1-0.6L22.4,27.8L23.2,26.4z"/>
		<path class="st0" d="M22.9,26.5L3.7,54.6l-0.1,0.9l98.1,255.6l1.8,0.2l16.7-26.9l0.1-0.9L22.1,27.9C21.3,27.8,23.7,26.6,22.9,26.5
			z"/>
		<path class="st0" d="M291.5,56.2L98.8,71.9l-0.8,1.4l10.7,25.6l1,0.6l166.3-14.4l0.8-0.5l16.2-29.1
			C292.5,54.8,291.9,56.9,291.5,56.2z"/>
		<path class="st0" d="M198.9,119.5l-19.2,25.1l-0.1,0.9l18.1,51.5l1.8,0.2l15.7-25.8l0.1-0.8L198,120.9
			C197.2,120.8,200.9,119.5,198.9,119.5z"/>
		<path class="st0" d="M368.9,263.5l-248,20.5l-0.8,0.5l-16.7,26.9c0.4,0.7-2-0.5-1.6,0.2l253-20.5l0.8-0.5L368.9,263.5L368.9,263.5
			z"/>
		<path class="st0" d="M197.9,197.5l61-2.5l0.8-0.5l14.8-26.9l-1-1.5l-57.6,4.8l-0.8,0.5l-15.7,25.9
			C199.8,198.1,197.5,196.8,197.9,197.5z"/>
		<path class="st0" d="M268,216.9l-8.4-21.4l0-0.9l14.7-26.6l1.8,0.1l16.8,46.7l-0.9,1.3l-23.1,1.4L268,216.9z"/>
	</g>
</g>
</svg>
