<svg xmlns="http://www.w3.org/2000/svg" viewBox="0 0 245 496.06"><defs><style>.cls-1{fill:#fff;}</style></defs><title>logoName</title><g id="Layer_1" data-name="Layer 1"><path class="cls-1" d="M179.34,437.7C274.94,493.52,373,426,373,335.5a123,123,0,0,0-1.28-17.7l.28.2L337.93,147.64c-1.2-6-9.94-5.6-10.57.5L322.19,198c-1.65,15.89-17.57,26.42-32.71,21.34a122.3,122.3,0,0,0-39-6.34c-90.45,0-158,98.06-102.2,193.66A86.63,86.63,0,0,0,179.34,437.7Zm25.77-157c71.07-47.37,147.6,29.16,100.23,100.23a34,34,0,0,1-9.45,9.45c-71.07,47.37-147.6-29.16-100.23-100.23A34,34,0,0,1,205.11,280.66Z" transform="translate(-128 -143.34)"/><path class="cls-1" d="M169.35,519a28.66,28.66,0,0,0-28,22.59,31.81,31.81,0,0,0-1.35,9.16v82.94A5.7,5.7,0,0,0,151,635.9l19.78-47.14A25.71,25.71,0,0,1,194.43,573H319a54,54,0,0,0,54-54H169.35Z" transform="translate(-128 -143.34)"/></g></svg>