<?xml version="1.0" encoding="utf-8"?>
<!-- Generator: Adobe Illustrator 22.1.0, SVG Export Plug-In . SVG Version: 6.00 Build 0)  -->
<svg version="1.1" xmlns="http://www.w3.org/2000/svg" xmlns:xlink="http://www.w3.org/1999/xlink" x="0px" y="0px"
	 viewBox="0 0 509 777" style="enable-background:new 0 0 509 777;" xml:space="preserve">
<style type="text/css">
	.st0{display:none;}
	.st1{display:inline;fill:#1E1E1E;}
	.st2{fill:#F0F0F0;}
</style>
<g id="Layer_2" class="st0">
	<rect x="-261" class="st1" width="1083" height="777"/>
</g>
<g id="Layer_1">
	<g id="Layer_3">
	</g>
	<g>
		<path class="st2" d="M444.1,19.4c1.8,0,4,1,4.2,3.8l23.4,257.9l0.2,6.6c0.3,8.9,0,17.8-0.9,26.6c-4.9,45.3-26.3,87-60.2,117.3
			c-33.7,30.1-77.1,46.7-122.1,46.7c-42.4,0-84.9-14.8-122.9-42.9c-17.7-13.1-31.9-30.6-40.9-50.8c-15.4-34.4-22-69-19.6-103
			c2.2-31,12.2-61,28.9-86.8c16.4-25.3,39.1-46.5,65.6-61.1c27-14.9,57.6-22.8,88.4-22.8c6.6,0,13.3,0.4,19.8,1.1
			c19.9,2.1,39.1,7.4,57.1,15.7c5.5,2.5,11.4,3.8,17.4,3.8c19.9,0,37.4-14.2,41.5-33.8l16-75.1C440.6,19.6,443.3,19.4,444.1,19.4
			L444.1,19.4 M288.8,405.1c20.5,0,41.3-5.4,61.6-16c6.6-3.5,12.4-8.1,17.2-13.8c32.3-38.8,40.1-86.4,20.9-127.4
			c-18.4-39.3-56.9-63.7-100.5-63.7c-20.6,0-41.3,5.4-61.6,16c-6.6,3.5-12.4,8.1-17.2,13.8c-32.3,38.8-40.1,86.4-20.9,127.4
			C206.7,380.7,245.2,405.1,288.8,405.1 M444.1,15.4c-3.5,0-7,2.1-8,6.5l-16,75.1c-3.9,18.4-20.2,30.6-37.6,30.6
			c-5.2,0-10.6-1.1-15.7-3.5c-18-8.3-37.6-13.8-58.3-16c-6.8-0.7-13.6-1.1-20.3-1.1c-128.8,0-233,132.2-167.1,279.3
			c9.3,20.8,23.9,38.8,42.2,52.3c41.1,30.3,84.5,43.7,125.3,43.7c94.6,0,176-71.4,186.3-167.6c1-9.2,1.3-18.2,0.9-27.2l0.4,0.3
			l-24-265C451.8,17.9,447.9,15.4,444.1,15.4L444.1,15.4z M288.8,401.1c-87.3,0-145.4-101.9-76.5-184.6c4.4-5.3,9.8-9.7,16-12.9
			c20.6-10.8,40.9-15.5,59.7-15.5c87.3,0,145.4,101.9,76.5,184.6c-4.4,5.3-9.8,9.7-15.9,12.9C327.9,396.3,307.7,401.1,288.8,401.1
			L288.8,401.1z"/>
	</g>
	<g>
		<path class="st2" d="M130,564.6c1.4,0,2.9,0.1,4.3,0.2l306.1,32.9c-2.8,17.9-11.7,34.2-25.3,46.3c-14.5,12.9-33.1,20-52.3,20
			c-2.8,0-5.7-0.2-8.5-0.5l-189.7-20.4c-1.5-0.2-3.1-0.2-4.6-0.2c-15.8,0-30.3,8.6-38,22.4l-37.8,68.6c-1.1,2-2.8,2.5-4,2.5
			c-1.4,0-2.8-0.6-3.8-1.6c-0.9-1-1.2-2.2-1.1-3.6l13.6-126.3c0.5-4.3,1.6-8.6,3.3-12.6l0.1-0.1l0.1-0.2
			C97.6,575.6,112.8,564.6,130,564.6 M130,560.6c-19,0-35.7,12.3-41.6,30.1c-1.8,4.3-3,8.9-3.6,13.7L71.3,730.7
			c-0.6,5.9,4.1,9.7,8.8,9.7c2.9,0,5.8-1.4,7.5-4.5l37.8-68.6c7-12.6,20.2-20.3,34.5-20.3c1.4,0,2.8,0.1,4.2,0.2l189.7,20.4
			c3,0.3,6,0.5,8.9,0.5c41.7,0,77.6-31.5,82.1-73.9v0l-310.2-33.3C133.2,560.7,131.6,560.6,130,560.6L130,560.6z"/>
	</g>
	<g>
		<path class="st2" d="M125.6,459.2c136.5,100.7,296.9,13.8,311.7-124c1-9.2,1.3-18.2,0.9-27.2l0.4,0.3l-24-265
			c-0.8-9.4-14.2-10.2-16.2-1l-16,75.1c-5.1,23.9-31.1,37.4-53.3,27.1c-18-8.3-37.6-13.8-58.3-16C133,113.9,14,252.2,83.4,406.9
			C92.8,427.7,107.3,445.7,125.6,459.2z M190.6,224.3c116-60.5,220,68.6,136.3,169.1c-4.4,5.3-9.8,9.7-15.9,12.9
			c-116,60.5-220-68.6-136.3-169.1C179,231.9,184.5,227.5,190.6,224.3z"/>
	</g>
	<g>
		<path class="st2" d="M97.1,581.4c-20.9-2.2-40,10.6-46.3,29.8c-1.8,4.3-3,8.9-3.6,13.7L33.7,751.3c-1,9.5,11.7,13.5,16.3,5.1
			l37.8-68.6c7.7-13.9,22.9-21.8,38.7-20.1l189.7,20.4c45.4,4.9,86.2-28,91.1-73.4v0L97.1,581.4z"/>
	</g>
</g>
</svg>
