<svg xmlns="http://www.w3.org/2000/svg" viewBox="0 0 373.8 315.18"><defs><style>.cls-1{fill:none;stroke:#fafafa;stroke-miterlimit:10;stroke-width:7px;}</style></defs><title>image</title><g id="Layer_2" data-name="Layer 2"><g id="Layer_1-2" data-name="Layer 1"><path class="cls-1" d="M23.2,26.4l248-22.81,1,.61,21.19,51.05-.85,1.38L98.7,71.92l-.86,1.34,56.28,153.05,1,.65,136.94-10.83.86-1.34-17.3-48-1-.65L216.16,171l-1-.67L197.8,120.23l.86-1.32,112-9.82,1,.64,58.26,152-.85,1.35L121.13,284l-1-.64L22.36,27.76Z"/><path class="cls-1" d="M22.88,26.52,3.65,54.6l-.09.89,98.1,255.65,1.79.17,16.67-26.86.09-.89L22.11,27.9C21.28,27.83,23.71,26.6,22.88,26.52Z"/><path class="cls-1" d="M291.47,56.18,98.76,71.91l-.84,1.38L108.6,98.85l1,.61L275.87,85.07l.78-.49,16.23-29.06C292.45,54.84,291.9,56.86,291.47,56.18Z"/><path class="cls-1" d="M198.88,119.52,179.67,144.6l-.12.9L197.68,197l1.8.19,15.66-25.8.09-.84L198,120.89C197.22,120.78,200.88,119.52,198.88,119.52Z"/><path class="cls-1" d="M368.88,263.52,120.88,284l-.76.47-16.68,26.88c.43.7-2-.51-1.56.19l253-20.45.8-.52,13.24-27Z"/><path class="cls-1" d="M197.88,197.52l61-2.46.81-.52,14.83-26.88-1-1.48L215.89,171l-.77.48-15.74,25.92C199.8,198.07,197.46,196.83,197.88,197.52Z"/><path class="cls-1" d="M268,216.85l-8.39-21.39.05-.85L274.32,168l1.81.14,16.8,46.67-.88,1.33-23.11,1.38Z"/></g></g></svg>