<svg width="1160" height="824" viewBox="0 0 1160 824" fill="none" xmlns="http://www.w3.org/2000/svg">
<g id="laptop 2">
<g id="Frame 1">
<path id="Vector" d="M743.772 243.136H740.236V146.139C740.236 131.25 734.329 116.971 723.815 106.443C713.301 95.9147 699.04 90 684.171 90H478.939C471.577 90 464.286 91.452 457.484 94.2733C450.682 97.0945 444.501 101.23 439.295 106.443C434.089 111.656 429.959 117.844 427.141 124.655C424.324 131.467 422.873 138.767 422.873 146.139V678.271C422.873 685.644 424.324 692.944 427.141 699.755C429.959 706.566 434.088 712.755 439.295 717.968C444.501 723.181 450.681 727.316 457.484 730.137C464.286 732.958 471.576 734.411 478.939 734.411H684.171C691.533 734.411 698.824 732.958 705.626 730.137C712.428 727.316 718.609 723.181 723.815 717.968C729.021 712.755 733.151 706.566 735.968 699.755C738.786 692.944 740.236 685.644 740.236 678.272V312.18H743.772V243.136Z" fill="#fafafa"/>
<path id="Vector 2" d="M686.011 105.933H659.221C660.453 108.958 660.923 112.239 660.591 115.488C660.258 118.737 659.132 121.855 657.312 124.566C655.493 127.277 653.036 129.498 650.157 131.034C647.278 132.57 644.066 133.374 640.804 133.374H523.229C519.967 133.374 516.755 132.57 513.877 131.034C510.998 129.498 508.54 127.277 506.721 124.566C504.901 121.855 503.776 118.737 503.443 115.488C503.11 112.239 503.58 108.958 504.812 105.933H479.791C468.686 105.933 458.037 110.35 450.185 118.212C442.333 126.075 437.922 136.738 437.922 147.857V679.209C437.922 684.714 439.004 690.166 441.109 695.252C443.213 700.339 446.297 704.961 450.185 708.854C454.073 712.747 458.688 715.835 463.768 717.942C468.848 720.048 474.292 721.133 479.791 721.133H686.011C697.115 721.133 707.765 716.716 715.617 708.854C723.469 700.991 727.88 690.328 727.88 679.209V147.857C727.88 142.352 726.797 136.9 724.693 131.814C722.589 126.727 719.505 122.106 715.617 118.212C711.729 114.319 707.113 111.231 702.033 109.124C696.954 107.018 691.509 105.933 686.011 105.933ZM681.51 352.431C681.501 355.308 680.356 358.065 678.324 360.1C676.292 362.135 673.539 363.281 670.665 363.29H618.248C615.374 363.281 612.62 362.135 610.588 360.1C608.556 358.065 607.411 355.308 607.403 352.431V349.716C607.411 346.838 608.556 344.081 610.588 342.046C612.62 340.012 615.374 338.865 618.248 338.857H670.665C673.539 338.865 676.292 340.012 678.324 342.046C680.356 344.081 681.501 346.838 681.51 349.716V352.431ZM687.384 304.469C687.376 307.347 686.231 310.104 684.199 312.138C682.167 314.173 679.413 315.32 676.539 315.328H488.56C485.686 315.32 482.933 314.173 480.901 312.138C478.869 310.104 477.723 307.347 477.715 304.469V301.754C477.723 298.877 478.869 296.12 480.901 294.085C482.933 292.05 485.686 290.904 488.56 290.895H676.539C679.413 290.904 682.167 292.05 684.199 294.085C686.231 296.12 687.376 298.877 687.384 301.754V304.469ZM687.384 256.508C687.376 259.385 686.231 262.142 684.199 264.177C682.167 266.212 679.413 267.358 676.539 267.367H488.56C485.686 267.358 482.933 266.212 480.901 264.177C478.869 262.142 477.723 259.385 477.715 256.508V253.793C477.723 250.915 478.869 248.158 480.901 246.124C482.933 244.089 485.686 242.942 488.56 242.934H676.539C679.413 242.942 682.167 244.089 684.199 246.124C686.231 248.158 687.376 250.915 687.384 253.793V256.508ZM687.384 208.546C687.376 211.424 686.231 214.181 684.199 216.216C682.167 218.25 679.413 219.397 676.539 219.405H488.56C485.686 219.397 482.933 218.25 480.901 216.216C478.869 214.181 477.723 211.424 477.715 208.546V205.831C477.723 202.954 478.869 200.197 480.901 198.162C482.933 196.127 485.686 194.981 488.56 194.972H676.539C679.413 194.981 682.167 196.127 684.199 198.162C686.231 200.197 687.376 202.954 687.384 205.831V208.546Z" fill="#fafafa"/>
<path id="Vector 3" d="M492.627 309.899C496.121 309.899 498.953 307.063 498.953 303.564C498.953 300.066 496.121 297.23 492.627 297.23C489.133 297.23 486.3 300.066 486.3 303.564C486.3 307.063 489.133 309.899 492.627 309.899Z" fill="white"/>
<path id="Vector 4" d="M513.413 309.899C516.907 309.899 519.739 307.063 519.739 303.564C519.739 300.066 516.907 297.23 513.413 297.23C509.919 297.23 507.087 300.066 507.087 303.564C507.087 307.063 509.919 309.899 513.413 309.899Z" fill="white"/>
<path id="Vector 5" d="M534.199 309.899C537.693 309.899 540.525 307.063 540.525 303.564C540.525 300.066 537.693 297.23 534.199 297.23C530.705 297.23 527.873 300.066 527.873 303.564C527.873 307.063 530.705 309.899 534.199 309.899Z" fill="white"/>
<path id="Vector 6" d="M554.985 309.899C558.479 309.899 561.312 307.063 561.312 303.564C561.312 300.066 558.479 297.23 554.985 297.23C551.491 297.23 548.659 300.066 548.659 303.564C548.659 307.063 551.491 309.899 554.985 309.899Z" fill="white"/>
<path id="Vector 7" d="M622.766 357.86C626.26 357.86 629.092 355.024 629.092 351.526C629.092 348.027 626.26 345.191 622.766 345.191C619.272 345.191 616.44 348.027 616.44 351.526C616.44 355.024 619.272 357.86 622.766 357.86Z" fill="white"/>
<path id="Vector 8" d="M643.552 357.86C647.046 357.86 649.879 355.024 649.879 351.526C649.879 348.027 647.046 345.191 643.552 345.191C640.059 345.191 637.226 348.027 637.226 351.526C637.226 355.024 640.059 357.86 643.552 357.86Z" fill="white"/>
<path id="Vector 9" d="M664.339 357.86C667.833 357.86 670.665 355.024 670.665 351.526C670.665 348.027 667.833 345.191 664.339 345.191C660.845 345.191 658.012 348.027 658.012 351.526C658.012 355.024 660.845 357.86 664.339 357.86Z" fill="white"/>
<path id="Vector 10" d="M688.839 433.601H474.453C469.416 433.601 464.586 435.605 461.025 439.171C457.463 442.737 455.462 447.574 455.462 452.617V557.207C455.462 562.25 457.463 567.087 461.025 570.653C464.586 574.219 469.416 576.223 474.453 576.223H688.839C693.875 576.223 698.706 574.219 702.267 570.653C705.829 567.087 707.829 562.25 707.829 557.207V452.617C707.829 447.574 705.829 442.737 702.267 439.171C698.706 435.605 693.875 433.601 688.839 433.601ZM469.149 446.573C469.572 446.496 479.611 444.786 487.924 449.794C496.236 454.801 499.429 464.485 499.561 464.894L499.897 465.938L498.818 466.13C497.279 466.37 495.723 466.485 494.166 466.472C489.225 466.566 484.349 465.336 480.043 462.908C471.731 457.901 468.538 448.218 468.406 447.809L468.07 446.764L469.149 446.573ZM515.686 543.678H477.449C474.66 543.678 471.985 542.569 470.013 540.594C468.041 538.62 466.934 535.941 466.934 533.149C466.934 530.356 468.041 527.678 470.013 525.704C471.985 523.729 474.66 522.62 477.449 522.62H515.686C518.475 522.62 521.15 523.729 523.122 525.704C525.094 527.678 526.202 530.356 526.202 533.149C526.202 535.941 525.094 538.62 523.122 540.594C521.15 542.569 518.475 543.678 515.686 543.678ZM689.667 541.764C689.658 544.807 688.446 547.724 686.297 549.876C684.148 552.028 681.235 553.241 678.195 553.25H649.517C646.478 553.241 643.565 552.028 641.416 549.876C639.266 547.724 638.055 544.807 638.046 541.764V524.534C638.055 521.491 639.266 518.574 641.416 516.422C643.565 514.27 646.478 513.057 649.517 513.048H678.195C681.235 513.057 684.148 514.27 686.297 516.422C688.446 518.574 689.658 521.491 689.667 524.534V541.764Z" fill="#fafafa"/>
<path id="Vector 11" d="M658.764 538.213H647.233C646.41 538.213 645.62 538.541 645.038 539.124C644.456 539.707 644.129 540.497 644.129 541.322C644.129 542.146 644.456 542.937 645.038 543.52C645.62 544.103 646.41 544.43 647.233 544.43H658.764C659.587 544.43 660.377 544.103 660.959 543.52C661.541 542.937 661.868 542.146 661.868 541.322C661.868 540.497 661.541 539.707 660.959 539.124C660.377 538.541 659.587 538.213 658.764 538.213Z" fill="#fafafa"/>
<path id="Vector 12" d="M680.051 538.213H668.52C667.697 538.213 666.907 538.541 666.325 539.124C665.743 539.707 665.416 540.497 665.416 541.322C665.416 542.146 665.743 542.937 666.325 543.52C666.907 544.103 667.697 544.43 668.52 544.43H680.051C680.874 544.43 681.664 544.103 682.246 543.52C682.828 542.937 683.155 542.146 683.155 541.322C683.155 540.497 682.828 539.707 682.246 539.124C681.664 538.541 680.874 538.213 680.051 538.213Z" fill="#fafafa"/>
<path id="Vector 13" d="M658.762 529.438H647.231C646.408 529.438 645.618 529.766 645.036 530.349C644.454 530.932 644.127 531.723 644.127 532.547C644.127 533.371 644.454 534.162 645.036 534.745C645.618 535.328 646.408 535.655 647.231 535.655H658.762C659.585 535.655 660.375 535.328 660.957 534.745C661.539 534.162 661.866 533.371 661.866 532.547C661.866 531.723 661.539 530.932 660.957 530.349C660.375 529.766 659.585 529.438 658.762 529.438Z" fill="#fafafa"/>
<path id="Vector 14" d="M680.049 529.438H668.519C667.695 529.438 666.906 529.766 666.323 530.349C665.741 530.932 665.414 531.723 665.414 532.547C665.414 533.371 665.741 534.162 666.323 534.745C666.906 535.328 667.695 535.655 668.519 535.655H680.049C680.873 535.655 681.662 535.328 682.244 534.745C682.827 534.162 683.154 533.371 683.154 532.547C683.154 531.723 682.827 530.932 682.244 530.349C681.662 529.766 680.873 529.438 680.049 529.438Z" fill="#fafafa"/>
<path id="Vector 15" d="M658.762 520.841H647.231C646.408 520.841 645.618 521.169 645.036 521.752C644.454 522.335 644.127 523.125 644.127 523.95C644.127 524.774 644.454 525.565 645.036 526.148C645.618 526.731 646.408 527.058 647.231 527.058H658.762C659.585 527.058 660.375 526.731 660.957 526.148C661.539 525.565 661.866 524.774 661.866 523.95C661.866 523.125 661.539 522.335 660.957 521.752C660.375 521.169 659.585 520.841 658.762 520.841Z" fill="#fafafa"/>
<path id="Vector 16" d="M680.049 520.841H668.519C667.695 520.841 666.906 521.169 666.323 521.752C665.741 522.335 665.414 523.125 665.414 523.95C665.414 524.774 665.741 525.565 666.323 526.148C666.906 526.731 667.695 527.058 668.519 527.058H680.049C680.873 527.058 681.662 526.731 682.244 526.148C682.827 525.565 683.154 524.774 683.154 523.95C683.154 523.125 682.827 522.335 682.244 521.752C681.662 521.169 680.873 520.841 680.049 520.841Z" fill="#fafafa"/>
<g id="kanan">
<path id="Vector 17" d="M837.325 473H809.362V501H837.325V473Z" fill="#E6E6E6"/>
<path id="Vector 18" d="M776.405 490H822.345V536H776.405V490ZM820.347 492H778.402V534H820.347V492Z" fill="#fafafa"/>
</g>
<g id="kiri">
<path id="Vector 19" d="M350.963 242H323V270H350.963V242Z" fill="#E6E6E6"/>
<path id="Vector 20" d="M383.92 253H337.98V207H383.92V253ZM339.978 251H381.923V209H339.978V251Z" fill="#fafafa"/>
</g>
</g>
</g>
</svg>
