<svg width="1160" height="824" viewBox="0 0 1160 824" fill="none" xmlns="http://www.w3.org/2000/svg">
<g id="laptop 3">
<g id="tablet 1">
<g id="Frame 1">
<path id="Vector" d="M370.479 218.85C370.479 218.85 329.349 196.27 317.149 161.68C312.128 147.135 302.524 134.611 289.779 125.99C283.697 121.943 277.256 118.462 270.539 115.59" stroke="#fafafa" stroke-width="2" stroke-miterlimit="10"/>
<path id="Vector 2" d="M262.739 93.84C266.629 97.75 270.819 116.14 270.819 116.14C270.819 116.14 252.459 111.84 248.569 107.92C246.851 106.012 245.933 103.517 246.004 100.951C246.075 98.3848 247.13 95.9443 248.951 94.1348C250.772 92.3254 253.22 91.2856 255.786 91.2307C258.353 91.1758 260.842 92.1101 262.739 93.84Z" fill="#fafafa"/>
<path id="Vector 3" d="M295.989 103.87C297.129 109.27 290.659 126.98 290.659 126.98C290.659 126.98 277.589 113.39 276.449 107.98C276.033 105.44 276.612 102.838 278.066 100.714C279.52 98.5907 281.737 97.1095 284.255 96.5788C286.774 96.0481 289.4 96.5088 291.587 97.8649C293.774 99.2211 295.354 101.368 295.999 103.86L295.989 103.87Z" fill="#fafafa"/>
<path id="Vector 4" d="M332.289 141.41C330.549 146.64 316.019 158.67 316.019 158.67C316.019 158.67 311.599 140.34 313.339 135.1C314.176 132.581 315.979 130.497 318.352 129.307C320.726 128.117 323.474 127.918 325.994 128.755C328.513 129.592 330.597 131.395 331.787 133.768C332.977 136.142 333.176 138.891 332.339 141.41H332.289Z" fill="#fafafa"/>
<path id="Vector 5" d="M353.399 176C352.569 181.45 340.279 195.76 340.279 195.76C340.279 195.76 332.819 178.44 333.649 172.99C333.787 171.643 334.198 170.338 334.855 169.155C335.513 167.971 336.404 166.933 337.474 166.105C338.545 165.276 339.773 164.673 341.083 164.332C342.394 163.992 343.76 163.921 345.098 164.125C346.437 164.328 347.72 164.801 348.871 165.515C350.021 166.229 351.014 167.17 351.791 168.279C352.567 169.389 353.109 170.644 353.386 171.97C353.662 173.295 353.667 174.663 353.399 175.99V176Z" fill="#fafafa"/>
<path id="Vector 6" d="M276.539 142.53C282.059 142.47 297.939 132.29 297.939 132.29C297.939 132.29 281.829 122.49 276.309 122.55C273.657 122.581 271.125 123.663 269.271 125.56C267.418 127.457 266.393 130.013 266.424 132.665C266.454 135.317 267.537 137.849 269.434 139.702C271.331 141.556 273.887 142.581 276.539 142.55V142.53Z" fill="#fafafa"/>
<path id="Vector 7" d="M301.689 182.67C306.929 180.96 319.039 166.5 319.039 166.5C319.039 166.5 300.729 161.97 295.489 163.68C293.061 164.574 291.074 166.375 289.946 168.703C288.817 171.031 288.635 173.706 289.438 176.166C290.241 178.626 291.965 180.679 294.25 181.893C296.534 183.108 299.201 183.39 301.689 182.68V182.67Z" fill="#fafafa"/>
<path id="Vector 8" d="M331.489 218.33C336.949 217.53 351.329 205.33 351.329 205.33C351.329 205.33 334.049 197.77 328.599 198.57C327.257 198.708 325.956 199.117 324.776 199.771C323.596 200.425 322.56 201.312 321.732 202.377C320.903 203.441 320.299 204.663 319.955 205.968C319.611 207.273 319.534 208.634 319.73 209.969C319.926 211.304 320.39 212.585 321.094 213.736C321.798 214.887 322.728 215.884 323.828 216.666C324.927 217.448 326.174 218 327.492 218.287C328.811 218.575 330.173 218.593 331.499 218.34L331.489 218.33Z" fill="#fafafa"/>
<path id="Vector 9" d="M333.479 356.85C333.479 356.85 292.349 334.27 280.149 299.68C275.128 285.135 265.524 272.611 252.779 263.99C246.697 259.943 240.256 256.462 233.539 253.59" stroke="#fafafa" stroke-width="2" stroke-miterlimit="10"/>
<path id="Vector 10" d="M225.739 231.84C229.629 235.75 233.819 254.14 233.819 254.14C233.819 254.14 215.459 249.84 211.569 245.92C209.851 244.012 208.933 241.517 209.004 238.951C209.075 236.385 210.13 233.944 211.951 232.135C213.772 230.325 216.22 229.286 218.786 229.231C221.353 229.176 223.842 230.11 225.739 231.84Z" fill="#fafafa"/>
<path id="Vector 11" d="M258.989 241.87C260.129 247.27 253.659 264.98 253.659 264.98C253.659 264.98 240.589 251.39 239.449 245.98C239.033 243.44 239.612 240.838 241.066 238.714C242.52 236.591 244.737 235.11 247.255 234.579C249.774 234.048 252.4 234.509 254.587 235.865C256.774 237.221 258.355 239.368 258.999 241.86L258.989 241.87Z" fill="#fafafa"/>
<path id="Vector 12" d="M295.289 279.41C293.549 284.64 279.019 296.67 279.019 296.67C279.019 296.67 274.599 278.34 276.339 273.1C276.753 271.852 277.409 270.699 278.269 269.705C279.13 268.711 280.177 267.896 281.352 267.307C282.527 266.717 283.807 266.365 285.118 266.271C286.429 266.176 287.746 266.341 288.994 266.755C290.241 267.169 291.395 267.825 292.389 268.686C293.383 269.546 294.198 270.593 294.787 271.768C295.377 272.944 295.728 274.223 295.823 275.534C295.918 276.846 295.753 278.162 295.339 279.41H295.289Z" fill="#fafafa"/>
<path id="Vector 13" d="M316.399 314C315.569 319.45 303.279 333.76 303.279 333.76C303.279 333.76 295.819 316.44 296.649 310.99C296.787 309.643 297.198 308.338 297.855 307.155C298.513 305.971 299.404 304.933 300.474 304.105C301.545 303.276 302.773 302.673 304.083 302.332C305.394 301.992 306.76 301.921 308.098 302.125C309.437 302.328 310.72 302.801 311.871 303.515C313.021 304.229 314.014 305.17 314.791 306.279C315.567 307.389 316.109 308.644 316.386 309.97C316.662 311.295 316.667 312.663 316.399 313.99V314Z" fill="#fafafa"/>
<path id="Vector 14" d="M239.539 280.53C245.059 280.47 260.939 270.29 260.939 270.29C260.939 270.29 244.829 260.49 239.309 260.55C236.657 260.581 234.125 261.663 232.271 263.56C230.418 265.457 229.393 268.013 229.424 270.665C229.454 273.317 230.537 275.849 232.434 277.702C234.331 279.556 236.887 280.581 239.539 280.55V280.53Z" fill="#fafafa"/>
<path id="Vector 15" d="M264.689 320.67C269.929 318.96 282.039 304.5 282.039 304.5C282.039 304.5 263.729 299.97 258.489 301.68C257.196 302.049 255.99 302.675 254.945 303.521C253.899 304.366 253.035 305.414 252.404 306.601C251.772 307.789 251.387 309.091 251.271 310.431C251.154 311.77 251.309 313.12 251.726 314.398C252.144 315.677 252.814 316.858 253.698 317.871C254.583 318.884 255.662 319.709 256.872 320.295C258.082 320.881 259.398 321.218 260.741 321.284C262.084 321.35 263.427 321.145 264.689 320.68V320.67Z" fill="#fafafa"/>
<path id="Vector 16" d="M294.489 356.33C299.949 355.53 314.329 343.33 314.329 343.33C314.329 343.33 297.049 335.77 291.599 336.57C290.257 336.708 288.956 337.117 287.776 337.771C286.596 338.425 285.56 339.312 284.732 340.377C283.903 341.441 283.299 342.663 282.955 343.968C282.611 345.273 282.534 346.634 282.73 347.969C282.926 349.304 283.39 350.585 284.094 351.736C284.798 352.887 285.728 353.884 286.828 354.666C287.927 355.448 289.174 356 290.492 356.287C291.811 356.575 293.173 356.593 294.499 356.34L294.489 356.33Z" fill="#fafafa"/>
<path id="Vector 17" d="M810.279 48H345.709C340.12 47.9922 334.584 49.0852 329.417 51.2168C324.251 53.3483 319.554 56.4766 315.597 60.4231C311.639 64.3696 308.498 69.057 306.352 74.2176C304.205 79.3782 303.097 84.911 303.089 90.5V734.22C303.095 739.81 304.203 745.344 306.349 750.506C308.494 755.667 311.636 760.356 315.593 764.303C319.551 768.251 324.248 771.38 329.415 773.512C334.582 775.645 340.119 776.738 345.709 776.73H810.279C815.868 776.738 821.404 775.645 826.57 773.513C831.737 771.382 836.433 768.253 840.391 764.307C844.349 760.36 847.49 755.673 849.636 750.513C851.782 745.352 852.891 739.819 852.899 734.23V90.49C852.88 79.2042 848.38 68.3877 840.387 60.4196C832.395 52.4515 821.565 47.9841 810.279 48Z" fill="url(#paint0_linear)"/>
<path id="Vector 18" d="M826.359 56.73H329.639C318.593 56.73 309.639 65.6843 309.639 76.73V750.17C309.639 761.216 318.593 770.17 329.639 770.17H826.359C837.405 770.17 846.359 761.216 846.359 750.17V76.73C846.359 65.6843 837.405 56.73 826.359 56.73Z" fill="#fafafa"/>
<path id="Vector 19" d="M819.089 124.22H336.909V702.69H819.089V124.22Z" fill="#fafafa"/>
<path id="Vector 20" d="M575.819 96C579.436 96 582.369 93.0675 582.369 89.45C582.369 85.8326 579.436 82.9 575.819 82.9C572.201 82.9 569.269 85.8326 569.269 89.45C569.269 93.0675 572.201 96 575.819 96Z" fill="white"/>
<path id="Vector 21" d="M575.819 754.9C586.666 754.9 595.459 746.107 595.459 735.26C595.459 724.413 586.666 715.62 575.819 715.62C564.972 715.62 556.179 724.413 556.179 735.26C556.179 746.107 564.972 754.9 575.819 754.9Z" fill="white"/>
<path id="Vector 22" d="M477.149 199.36H406.849C400.304 199.36 394.999 204.665 394.999 211.21V281.51C394.999 288.055 400.304 293.36 406.849 293.36H477.149C483.693 293.36 488.999 288.055 488.999 281.51V211.21C488.999 204.665 483.693 199.36 477.149 199.36Z" fill="#fafafa"/>
<path id="Vector 23" opacity="0.2" d="M678.849 293.36H749.149C755.693 293.36 760.999 288.055 760.999 281.51V211.21C760.999 204.665 755.693 199.36 749.149 199.36H678.849C672.304 199.36 666.999 204.665 666.999 211.21V281.51C666.999 288.055 672.304 293.36 678.849 293.36Z" fill="#fafafa"/>
<path id="Vector 24" d="M613.149 199.36H542.849C536.304 199.36 530.999 204.665 530.999 211.21V281.51C530.999 288.055 536.304 293.36 542.849 293.36H613.149C619.693 293.36 624.999 288.055 624.999 281.51V211.21C624.999 204.665 619.693 199.36 613.149 199.36Z" fill="#fafafa"/>
<path id="Vector 25" d="M477.149 365.36H406.849C400.304 365.36 394.999 370.665 394.999 377.21V447.51C394.999 454.055 400.304 459.36 406.849 459.36H477.149C483.693 459.36 488.999 454.055 488.999 447.51V377.21C488.999 370.665 483.693 365.36 477.149 365.36Z" fill="#fafafa"/>
<path id="Vector 26" opacity="0.2" d="M678.849 459.36H749.149C755.693 459.36 760.999 454.055 760.999 447.51V377.21C760.999 370.665 755.693 365.36 749.149 365.36H678.849C672.304 365.36 666.999 370.665 666.999 377.21V447.51C666.999 454.055 672.304 459.36 678.849 459.36Z" fill="#fafafa"/>
<path id="Vector 27" opacity="0.2" d="M613.149 365.36H542.849C536.304 365.36 530.999 370.665 530.999 377.21V447.51C530.999 454.055 536.304 459.36 542.849 459.36H613.149C619.693 459.36 624.999 454.055 624.999 447.51V377.21C624.999 370.665 619.693 365.36 613.149 365.36Z" fill="#fafafa"/>
<path id="Vector 28" d="M477.149 531.36H406.849C400.304 531.36 394.999 536.665 394.999 543.21V613.51C394.999 620.055 400.304 625.36 406.849 625.36H477.149C483.693 625.36 488.999 620.055 488.999 613.51V543.21C488.999 536.665 483.693 531.36 477.149 531.36Z" fill="#fafafa"/>
<path id="Vector 29" d="M678.849 625.36H749.149C755.693 625.36 760.999 620.055 760.999 613.51V543.21C760.999 536.665 755.693 531.36 749.149 531.36H678.849C672.304 531.36 666.999 536.665 666.999 543.21V613.51C666.999 620.055 672.304 625.36 678.849 625.36Z" fill="#fafafa"/>
<path id="Vector 30" d="M613.149 531.36H542.849C536.304 531.36 530.999 536.665 530.999 543.21V613.51C530.999 620.055 536.304 625.36 542.849 625.36H613.149C619.693 625.36 624.999 620.055 624.999 613.51V543.21C624.999 536.665 619.693 531.36 613.149 531.36Z" fill="#fafafa"/>
</g>
</g>
</g>
<defs>
<linearGradient id="paint0_linear" x1="577.989" y1="776.72" x2="577.989" y2="48" gradientUnits="userSpaceOnUse">
<stop stop-color="#808080" stop-opacity="0.25"/>
<stop offset="0.54" stop-color="#808080" stop-opacity="0.12"/>
<stop offset="1" stop-color="#808080" stop-opacity="0.1"/>
</linearGradient>
</defs>
</svg>
