<svg width="1160" height="824" viewBox="0 0 1160 824" fill="none" xmlns="http://www.w3.org/2000/svg">
<g id="Frame 1">
<path id="Vector 59" d="M78 362.16C78 362.16 43.77 329.26 35 329.29C35 329.29 63.23 330.58 78.79 360.41L78 362.16Z" fill="#fafafa"/>
<g id="flower">
<path id="flower 2" d="M1125.79 267.42C1125.79 267.42 1110.56 261.23 1062.11 283.42C1013.66 305.61 1007.61 302.82 995.06 299.42C982.51 296.02 975.53 295.21 962.06 276.65C962.06 276.65 952.58 225.25 943.4 217.28C934.22 209.31 895.22 221.82 895.22 221.82C895.22 221.82 848.47 232.55 839.56 170.09C839.56 170.09 845.88 122.98 837.27 108.53C837.27 108.53 854.65 116.02 883.33 103.92C912.01 91.82 934.98 116.92 934.98 116.92C934.98 116.92 942.21 135.65 941.45 146.81C940.69 157.97 945.28 162.17 958.96 156.81C958.96 156.81 965.68 147.25 956.16 131.45C946.64 115.65 939.85 103.88 942.51 91.6C945.17 79.32 952.8 62.32 977.34 53.81C1001.88 45.3 1035.21 43.66 1051.21 37C1067.21 30.34 1071.08 26 1071.08 26C1071.08 26 1061.24 35.86 1084.43 77.68C1107.62 119.5 1092.84 137.68 1092.84 137.68C1092.84 137.68 1080.5 167.08 1026.03 164.68C1026.03 164.68 973.54 166.6 1002.16 188.86C1002.16 188.86 1020.48 185.13 1047.88 176.42C1075.28 167.71 1095.06 203.65 1099.97 228.66C1104.88 253.67 1125.79 267.42 1125.79 267.42Z" fill="#fafafa"/>
<g id="batang">
<path id="Vector" d="M1055.24 57.72L1055.52 57.65C1057.63 65.65 1034.17 97.65 1014.12 123.18L1013.88 123C1042.17 87.04 1056.86 63.86 1055.24 57.72Z" fill="#fafafa"/>
<path id="Vector 2" d="M1014.3 122.47L1014.42 122.8C998.42 143.16 978.25 167.46 962.13 185.46C960.6 187.18 959.07 188.98 957.6 190.82L957.14 190.45C958.62 188.6 960.14 186.79 961.69 185.07C977.81 167.08 998.29 142.83 1014.3 122.47Z" fill="#fafafa"/>
<path id="Vector 3" d="M957.53 189.96L957.85 190.51C928.51 227.14 926.57 284.02 926.5 284.51L920.31 277.37C920.41 276.87 927.98 226.85 957.53 189.96Z" fill="#fafafa"/>
<path id="Vector 4" d="M1091.76 247.55C1091.76 247.55 1057.16 229.55 1030.2 236.02C1003.24 242.49 942.53 213.21 942.53 213.21C942.53 213.21 916.76 202.74 911.53 190.8C911.53 190.8 893.84 172.11 892.83 162.42C891.82 152.73 874.61 128.42 863.38 127.49" stroke="#fafafa" stroke-miterlimit="10"/>
<path id="Vector 5" d="M1086.75 264.87C1086.75 264.87 1069.33 253.13 1071.35 239.45" stroke="#fafafa" stroke-miterlimit="10"/>
<path id="Vector 6" d="M1060.02 280.03C1060.02 280.03 1035.11 270.98 1032.6 235.51" stroke="#fafafa" stroke-miterlimit="10"/>
<path id="Vector 7" d="M1019.81 289.21C1019.81 289.21 996 269.45 1003.9 234.93" stroke="#fafafa" stroke-miterlimit="10"/>
<path id="Vector 8" d="M971.5 279.55C971.5 279.55 955.63 246.3 969.75 224.66" stroke="#fafafa" stroke-miterlimit="10"/>
<path id="Vector 9" d="M1092.16 225.63C1092.16 225.63 1074.16 231.35 1078.01 240.83" stroke="#fafafa" stroke-miterlimit="10"/>
<path id="Vector 10" d="M1070.41 192.92C1070.41 192.92 1046.3 200.57 1045.73 234.68" stroke="#fafafa" stroke-miterlimit="10"/>
<path id="Vector 11" d="M1036.79 185.05C1036.79 185.05 1014.85 212.14 1016.45 236.76" stroke="#fafafa" stroke-miterlimit="10"/>
<path id="Vector 12" d="M998.41 195.67C998.41 195.67 976.61 216.51 979.41 228.1" stroke="#fafafa" stroke-miterlimit="10"/>
<path id="Vector 13" d="M985.21 188.31C985.21 188.31 964.77 191.98 961.91 185.31" stroke="#fafafa" stroke-miterlimit="10"/>
<path id="Vector 14" d="M958.65 163.63C958.65 163.63 968.98 177.31 971.65 174.25" stroke="#fafafa" stroke-miterlimit="10"/>
<path id="Vector 15" d="M1061.03 154.98C1061.03 154.98 1009.5 158.72 997.84 143.19" stroke="#fafafa" stroke-miterlimit="10"/>
<path id="Vector 16" d="M947.81 94.71C947.81 94.71 971.99 146.61 989.54 153.22" stroke="#fafafa" stroke-miterlimit="10"/>
<path id="Vector 17" d="M973.17 69.99C973.17 69.99 988.02 117.73 1006.42 132.63" stroke="#fafafa" stroke-miterlimit="10"/>
<path id="Vector 18" d="M1082.71 115.55C1082.71 115.55 1043.53 132.37 1020 115.36" stroke="#fafafa" stroke-width="0.75" stroke-miterlimit="10"/>
<path id="Vector 19" d="M1008.08 59.81C1008.08 59.81 1017.03 94.91 1029.08 103.38" stroke="#fafafa" stroke-width="0.75" stroke-miterlimit="10"/>
<path id="Vector 20" d="M1076.8 76.28C1076.8 76.28 1054.8 84.61 1046.55 78.28" stroke="#fafafa" stroke-width="0.75" stroke-miterlimit="10"/>
<path id="Vector 21" d="M939.79 175.1C939.79 175.1 939.73 205.69 931.45 207.86" stroke="#fafafa" stroke-miterlimit="10"/>
<path id="Vector 22" d="M871.71 214.73C871.71 214.73 904.78 217.55 920.03 200.55" stroke="#fafafa" stroke-miterlimit="10"/>
<path id="Vector 23" d="M931.25 138.96C931.25 138.96 923.25 169.96 901.17 178.34" stroke="#fafafa" stroke-miterlimit="10"/>
<path id="Vector 24" d="M851.87 182.05C851.87 182.05 875.28 190.19 895.41 169.46" stroke="#fafafa" stroke-miterlimit="10"/>
<path id="Vector 25" d="M905.22 112.29C905.22 112.29 903.01 138.64 888.69 150.97" stroke="#fafafa" stroke-miterlimit="10"/>
<path id="Vector 26" d="M852.76 141.9C852.76 141.9 872.19 142.03 876.76 135.7" stroke="#fafafa" stroke-miterlimit="10"/>
</g>
</g>
<path id="Vector 27" d="M222.94 768.62C222.94 768.62 236.25 759.84 249.44 766.09C249.44 766.09 245.38 773.91 228.68 773.17L222.94 768.62Z" fill="#fafafa"/>
<path id="Vector 28" d="M221.31 769.09C221.31 769.09 217.26 784.55 227.41 795C227.41 795 233.52 788.64 227.46 773.07L221.31 769.09Z" fill="#fafafa"/>
<path id="Vector 29" d="M204.71 754.29C204.71 754.29 205.71 741.17 235.31 745.52C235.31 745.52 235.45 753.98 225.05 757.99C214.65 762 209.9 758.62 204.71 754.29Z" fill="#fafafa"/>
<path id="Vector 30" d="M202.89 754.2C202.89 754.2 190.37 758.2 201.53 785.99C201.53 785.99 209.79 784.15 211.25 773.1C212.71 762.05 208.32 758.22 202.89 754.2Z" fill="#fafafa"/>
<path id="Vector 31" d="M186.12 735.55C186.12 735.55 184.43 713.97 214.69 716.19C214.69 716.19 216.84 735.72 191.47 740.74L186.12 735.55Z" fill="#fafafa"/>
<path id="Vector 32" d="M166.13 711.23C166.13 711.23 170.27 686.78 200.52 694.07C200.52 694.07 200.64 715.21 171.06 717.07L166.13 711.23Z" fill="#fafafa"/>
<path id="Vector 33" d="M151.51 686.05C151.51 686.05 158.51 662.17 188.43 669.36C188.43 669.36 181.3 690.78 153.5 690.45L151.51 686.05Z" fill="#fafafa"/>
<path id="Vector 34" d="M137.63 661.45C137.63 661.45 144.42 636.73 173.35 644.15C173.35 644.15 163.69 667.64 139.53 665.66L137.63 661.45Z" fill="#fafafa"/>
<path id="Vector 35" d="M128.68 638.08C128.68 638.08 133.9 607.85 160.88 614.54C160.88 614.54 153.04 642.04 130.67 642.48L128.68 638.08Z" fill="#fafafa"/>
<path id="Vector 36" d="M120.29 609.85C120.29 609.85 126.56 579.38 153.83 588.24C153.83 588.24 143.12 617.04 122.19 614.06L120.29 609.85Z" fill="#fafafa"/>
<path id="Vector 37" d="M115.1 583.55C115.1 583.55 125.04 553.07 146.15 553.9C146.15 553.9 135.98 586.09 116.86 589.66L115.1 583.55Z" fill="#fafafa"/>
<path id="Vector 38" d="M111.8 557.94C111.8 557.94 122.62 521.25 139.8 524.09C139.8 524.09 132.31 552.09 112.41 563.66L111.8 557.94Z" fill="#fafafa"/>
<path id="Vector 39" d="M109.92 527.32C109.92 527.32 120.07 496.75 137.03 495.55C137.03 495.55 130.12 525.63 110.3 535.28L109.92 527.32Z" fill="#fafafa"/>
<path id="Vector 40" d="M107.87 498.81C107.87 498.81 120.53 468.2 131.73 467.51C131.73 467.51 126.24 497.65 108.99 503.83L107.87 498.81Z" fill="#fafafa"/>
<path id="Vector 41" d="M106.46 472.26C106.46 472.26 114.24 439.02 125.46 436.26C125.46 436.26 123.93 463.44 107.61 474.74L106.46 472.26Z" fill="#fafafa"/>
<path id="Vector 42" d="M102.26 437.55C102.26 437.55 110.44 411.06 119.5 407.02C119.5 407.02 117.71 438.25 104.36 444.02L102.26 437.55Z" fill="#fafafa"/>
<path id="Vector 43" d="M98.7501 414.69L97.1001 367.98C97.1001 367.98 114.02 403.24 100 422.93L98.7501 414.69Z" fill="#fafafa"/>
<path id="Vector 44" d="M85.67 368.27C85.67 368.27 73.47 334.16 70.54 332.27C70.54 332.27 94.4701 354.4 92.1301 382.87L85.67 368.27Z" fill="#fafafa"/>
<path id="Vector 45" d="M185.3 735.44C185.3 735.44 163.84 732.63 164.48 762.96C164.48 762.96 183.88 766.12 190.21 741.04L185.3 735.44Z" fill="#fafafa"/>
<path id="Vector 46" d="M165.11 710.42C165.11 710.42 140.31 710.33 142.33 741.42C142.33 741.42 163.14 745.14 170.01 716.32L165.11 710.42Z" fill="#fafafa"/>
<path id="Vector 47" d="M151.27 688.06C151.27 688.06 128.76 677.55 114.35 704.75C114.35 704.75 135.15 713.54 153.26 692.46L151.27 688.06Z" fill="#fafafa"/>
<path id="Vector 48" d="M137.13 661.68C137.13 661.68 114.08 650.44 100.54 677.07C100.54 677.07 124.54 685.33 139.03 665.89L137.13 661.68Z" fill="#fafafa"/>
<path id="Vector 49" d="M128.97 638.74C128.97 638.74 106.79 617.54 89.0801 638.98C89.0801 638.98 111.75 656.42 129.99 643.46L128.97 638.74Z" fill="#fafafa"/>
<path id="Vector 50" d="M121.55 609.13C121.55 609.13 99.2302 587.45 81.6602 610.13C81.6602 610.13 106.72 627.91 122.34 613.68L121.55 609.13Z" fill="#fafafa"/>
<path id="Vector 51" d="M117.41 582.71C117.41 582.71 100.22 555.71 79.97 561.71C79.97 561.71 97.81 590.37 117.22 589.09L117.41 582.71Z" fill="#fafafa"/>
<path id="Vector 52" d="M112.31 557.77C112.31 557.77 94.9598 523.68 78.5898 529.6C78.5898 529.6 91.0798 555.8 112.75 563.5L112.31 557.77Z" fill="#fafafa"/>
<path id="Vector 53" d="M111.11 525.55C111.11 525.55 93.2999 498.71 76.6099 501.99C76.6099 501.99 91.1699 529.2 112.84 533.31L111.11 525.55Z" fill="#fafafa"/>
<path id="Vector 54" d="M109.75 498.21C109.75 498.21 95.95 468.1 84.75 467.84C84.75 467.84 91.38 497.74 108.85 503.27L109.75 498.21Z" fill="#fafafa"/>
<path id="Vector 55" d="M107.02 471.6C107.02 471.6 91.6701 441.11 80.1401 441.05C80.1401 441.05 88.0001 467.12 106.5 474.29L107.02 471.6Z" fill="#fafafa"/>
<path id="Vector 56" d="M104.71 439.39C104.71 439.39 93.23 414.15 83.71 411.29C83.71 411.29 89.4499 442.05 103.43 446.08L104.71 439.39Z" fill="#fafafa"/>
<path id="Vector 57" d="M97.41 413.81L71.74 374.74C71.74 374.74 78.31 413.28 101.13 421.26L97.41 413.81Z" fill="#fafafa"/>
<path id="Vector 62" d="M258.09 792.55C257.76 792.4 224.6 777.6 190.17 742.27C170.011 721.591 153.253 697.851 140.52 671.93C124.61 639.55 114.91 599.74 111.66 561.05L113.66 561.97C120.97 648.81 160.5 708.18 191.94 740.47C226.03 775.47 258.82 790.14 259.15 790.28L258.09 792.55Z" fill="#fafafa"/>
<path id="Vector 58" d="M79.7801 371.42C79.7801 371.42 49.9701 350.84 48.8901 347.55C48.8901 347.55 64.1001 376.38 92.2101 381.46L79.7801 371.42Z" fill="#fafafa"/>
<path id="Vector 60" d="M104.41 444.27L103.16 444.43C96.73 394.08 87.35 364.33 76.75 360.65L77.17 359.46C88.41 363.36 97.79 392.69 104.41 444.27Z" fill="#fafafa"/>
<path id="Vector 63" d="M994.354 128.5L994.361 128.5C1014.64 128.491 1030.68 143.984 1030.68 160.39V765.23C1030.68 781.462 1014.87 795.34 994.4 795.34H173.77C153.31 795.34 137.5 781.443 137.5 765.23V160.39C137.5 143.828 153.672 126.502 173.767 126.5C173.768 126.5 173.769 126.5 173.77 126.5L994.354 128.5Z" fill="#fafafa" stroke="black" stroke-width="5"/>
<path id="Vector 64" d="M996.57 126.5L996.572 126.5C1001.05 126.496 1005.48 127.375 1009.63 129.086C1013.76 130.796 1017.52 133.305 1020.68 136.469C1023.85 139.633 1026.37 143.391 1028.08 147.525C1029.8 151.661 1030.68 156.094 1030.68 160.57V186.07H137.5V160.57C137.5 151.534 141.09 142.868 147.479 136.479C153.868 130.09 162.534 126.5 171.57 126.5L996.57 126.5Z" fill="#fafafa" stroke="black" stroke-width="5"/>
<path id="Vector 61" d="M113.83 564.65L111.95 564.81C111.55 560.11 111.25 555.3 111.04 550.51C109.25 508.83 106.46 470.57 102.8 441.88L103.89 440.54C107.56 469.27 111.13 508.7 112.89 550.42C113.14 555.19 113.41 559.97 113.83 564.65Z" fill="#fafafa"/>
<path id="Vector 65" opacity="0.8" d="M181 168.09C188.136 168.09 193.92 162.306 193.92 155.17C193.92 148.034 188.136 142.25 181 142.25C173.864 142.25 168.08 148.034 168.08 155.17C168.08 162.306 173.864 168.09 181 168.09Z" fill="#FA5959"/>
<path id="Vector 66" opacity="0.8" d="M218.61 168.09C225.746 168.09 231.53 162.306 231.53 155.17C231.53 148.034 225.746 142.25 218.61 142.25C211.475 142.25 205.69 148.034 205.69 155.17C205.69 162.306 211.475 168.09 218.61 168.09Z" fill="#FED253"/>
<path id="Vector 67" opacity="0.8" d="M256.21 168.09C263.346 168.09 269.13 162.306 269.13 155.17C269.13 148.034 263.346 142.25 256.21 142.25C249.074 142.25 243.29 148.034 243.29 155.17C243.29 162.306 249.074 168.09 256.21 168.09Z" fill="#8CCF4D"/>
<path id="Vector 68" d="M837.51 712.66C838.002 712.66 838.4 712.262 838.4 711.77C838.4 711.278 838.002 710.88 837.51 710.88C837.019 710.88 836.62 711.278 836.62 711.77C836.62 712.262 837.019 712.66 837.51 712.66Z" fill="#E6E8EC"/>
<path id="Vector 69" d="M321.68 386.27H238.95C238.574 386.247 238.198 386.302 237.844 386.43C237.49 386.558 237.166 386.758 236.892 387.016C236.618 387.274 236.4 387.585 236.25 387.931C236.101 388.276 236.024 388.649 236.024 389.025C236.024 389.401 236.101 389.774 236.25 390.119C236.4 390.465 236.618 390.776 236.892 391.034C237.166 391.293 237.49 391.492 237.844 391.62C238.198 391.748 238.574 391.803 238.95 391.78H321.68C322.056 391.803 322.432 391.748 322.786 391.62C323.14 391.492 323.464 391.293 323.738 391.034C324.012 390.776 324.231 390.465 324.38 390.119C324.529 389.774 324.606 389.401 324.606 389.025C324.606 388.649 324.529 388.276 324.38 387.931C324.231 387.585 324.012 387.274 323.738 387.016C323.464 386.758 323.14 386.558 322.786 386.43C322.432 386.302 322.056 386.247 321.68 386.27ZM321.68 395.72H238.95C238.218 395.72 237.516 396.011 236.998 396.528C236.481 397.046 236.19 397.748 236.19 398.48C236.19 399.212 236.481 399.914 236.998 400.432C237.516 400.949 238.218 401.24 238.95 401.24H321.68C322.412 401.24 323.114 400.949 323.632 400.432C324.149 399.914 324.44 399.212 324.44 398.48C324.44 397.748 324.149 397.046 323.632 396.528C323.114 396.011 322.412 395.72 321.68 395.72ZM317.53 331.94H243.11C241.277 331.943 239.52 332.671 238.223 333.966C236.926 335.261 236.195 337.017 236.19 338.85V373.85C236.195 375.683 236.926 377.439 238.223 378.734C239.52 380.029 241.277 380.757 243.11 380.76H317.53C319.361 380.755 321.116 380.025 322.41 378.73C323.705 377.436 324.435 375.681 324.44 373.85V338.85C324.435 337.019 323.705 335.264 322.41 333.97C321.116 332.675 319.361 331.945 317.53 331.94ZM252.34 374.49H245.25C244.518 374.49 243.816 374.199 243.298 373.682C242.781 373.164 242.49 372.462 242.49 371.73C242.49 370.998 242.781 370.296 243.298 369.778C243.816 369.261 244.518 368.97 245.25 368.97H252.34C253.072 368.97 253.774 369.261 254.292 369.778C254.809 370.296 255.1 370.998 255.1 371.73C255.1 372.462 254.809 373.164 254.292 373.682C253.774 374.199 253.072 374.49 252.34 374.49ZM252.34 343.76H245.25C244.518 343.76 243.816 343.469 243.298 342.952C242.781 342.434 242.49 341.732 242.49 341C242.49 340.268 242.781 339.566 243.298 339.048C243.816 338.531 244.518 338.24 245.25 338.24H252.34C253.072 338.24 253.774 338.531 254.292 339.048C254.809 339.566 255.1 340.268 255.1 341C255.1 341.732 254.809 342.434 254.292 342.952C253.774 343.469 253.072 343.76 252.34 343.76ZM280.34 372.12C277.223 372.12 274.176 371.196 271.584 369.464C268.993 367.732 266.973 365.271 265.78 362.391C264.587 359.511 264.275 356.343 264.883 353.285C265.491 350.228 266.992 347.42 269.196 345.216C271.4 343.012 274.208 341.511 277.265 340.903C280.323 340.295 283.491 340.607 286.371 341.8C289.251 342.993 291.712 345.012 293.444 347.604C295.176 350.196 296.1 353.243 296.1 356.36C296.095 360.542 294.43 364.55 291.471 367.505C288.512 370.46 284.502 372.12 280.32 372.12H280.34ZM315.41 374.49H308.32C307.588 374.49 306.886 374.199 306.368 373.682C305.851 373.164 305.56 372.462 305.56 371.73C305.56 370.998 305.851 370.296 306.368 369.778C306.886 369.261 307.588 368.97 308.32 368.97H315.41C316.142 368.97 316.844 369.261 317.362 369.778C317.879 370.296 318.17 370.998 318.17 371.73C318.17 372.462 317.879 373.164 317.362 373.682C316.844 374.199 316.142 374.49 315.41 374.49ZM315.41 343.76H308.32C307.588 343.76 306.886 343.469 306.368 342.952C305.851 342.434 305.56 341.732 305.56 341C305.56 340.268 305.851 339.566 306.368 339.048C306.886 338.531 307.588 338.24 308.32 338.24H315.41C316.142 338.24 316.844 338.531 317.362 339.048C317.879 339.566 318.17 340.268 318.17 341C318.17 341.732 317.879 342.434 317.362 342.952C316.844 343.469 316.142 343.76 315.41 343.76Z" fill="#CECECE"/>
<path id="Vector 70" d="M280.32 367.18C286.086 367.18 290.76 362.506 290.76 356.74C290.76 350.974 286.086 346.3 280.32 346.3C274.554 346.3 269.88 350.974 269.88 356.74C269.88 362.506 274.554 367.18 280.32 367.18Z" fill="white"/>
<path id="Vector 71" opacity="0.2" d="M814.16 262.29H438.47V470.87H814.16V262.29Z" fill="#fafafa"/>
<path id="Vector 72" opacity="0.2" d="M814.16 517.53H438.47V726.11H814.16V517.53Z" fill="#fafafa"/>
<path id="Vector 73" d="M523.72 407.53H512.35V445.63H523.72V407.53Z" fill="white"/>
<path id="Vector 74" d="M545.37 360.36H534V445.63H545.37V360.36Z" fill="white"/>
<path id="Vector 75" d="M567.03 317.86H555.66V445.63H567.03V317.86Z" fill="#DFE3EF"/>
<path id="Vector 76" d="M588.69 287.54H577.32V445.63H588.69V287.54Z" fill="white"/>
<path id="Vector 77" d="M567.03 287.54H555.66V445.63H567.03V287.54Z" fill="#fafafa"/>
<path id="Vector 78" d="M610.34 358.73H598.97V445.63H610.34V358.73Z" fill="#fafafa"/>
<path id="Vector 79" opacity="0.2" d="M632 336.27H620.63V445.63H632V336.27Z" fill="#fafafa"/>
<path id="Vector 80" d="M653.65 302.16H642.28V445.63H653.65V302.16Z" fill="#fafafa"/>
<path id="Vector 81" opacity="0.2" d="M675.31 381.74H663.94V445.63H675.31V381.74Z" fill="#fafafa"/>
<path id="Vector 82" d="M696.97 352.24H685.6V445.63H696.97V352.24Z" fill="#fafafa"/>
<path id="Vector 83" opacity="0.2" d="M718.62 317.86H707.25V445.63H718.62V317.86Z" fill="#fafafa"/>
<path id="Vector 84" d="M740.28 317.86H728.91V445.63H740.28V317.86Z" fill="#fafafa"/>
<path id="Vector 85" d="M324.41 596.6C324.405 594.931 323.739 593.331 322.559 592.151C321.379 590.971 319.779 590.305 318.11 590.3H242.5C240.83 590.305 239.229 590.97 238.047 592.15C236.866 593.33 236.198 594.93 236.19 596.6V606.06H324.41V596.6ZM236.16 647.03C236.165 648.702 236.832 650.304 238.014 651.486C239.196 652.668 240.798 653.335 242.47 653.34H318.11C319.781 653.335 321.382 652.668 322.562 651.485C323.743 650.303 324.407 648.701 324.41 647.03V615.55H236.19L236.16 647.03ZM264.16 637.58H296.47C296.846 637.557 297.222 637.612 297.576 637.74C297.93 637.868 298.254 638.067 298.528 638.325C298.802 638.584 299.02 638.895 299.17 639.241C299.319 639.586 299.396 639.959 299.396 640.335C299.396 640.711 299.319 641.084 299.17 641.429C299.02 641.775 298.802 642.086 298.528 642.344C298.254 642.603 297.93 642.802 297.576 642.93C297.222 643.058 296.846 643.113 296.47 643.09H264.16C263.458 643.048 262.799 642.739 262.317 642.227C261.835 641.715 261.566 641.038 261.566 640.335C261.566 639.632 261.835 638.955 262.317 638.443C262.799 637.931 263.458 637.622 264.16 637.58ZM249.98 637.58H252.34C252.716 637.557 253.092 637.612 253.446 637.74C253.8 637.868 254.124 638.067 254.398 638.325C254.672 638.584 254.891 638.895 255.04 639.241C255.189 639.586 255.266 639.959 255.266 640.335C255.266 640.711 255.189 641.084 255.04 641.429C254.891 641.775 254.672 642.086 254.398 642.344C254.124 642.603 253.8 642.802 253.446 642.93C253.092 643.058 252.716 643.113 252.34 643.09H249.98C249.604 643.113 249.228 643.058 248.874 642.93C248.52 642.802 248.196 642.603 247.922 642.344C247.648 642.086 247.429 641.775 247.28 641.429C247.131 641.084 247.054 640.711 247.054 640.335C247.054 639.959 247.131 639.586 247.28 639.241C247.429 638.895 247.648 638.584 247.922 638.325C248.196 638.067 248.52 637.868 248.874 637.74C249.228 637.612 249.604 637.557 249.98 637.58Z" fill="#CECECE"/>
<path id="Vector 86" d="M523.72 662.76H512.35V700.86H523.72V662.76Z" fill="white"/>
<path id="Vector 87" d="M545.37 615.59H534V700.86H545.37V615.59Z" fill="white"/>
<path id="Vector 88" d="M567.03 573.09H555.66V700.86H567.03V573.09Z" fill="#DFE3EF"/>
<path id="Vector 89" d="M588.69 542.77H577.32V700.86H588.69V542.77Z" fill="white"/>
<path id="Vector 90" d="M567.03 542.77H555.66V700.86H567.03V542.77Z" fill="#fafafa"/>
<path id="Vector 91" d="M610.34 613.96H598.97V700.86H610.34V613.96Z" fill="#fafafa"/>
<path id="Vector 92" d="M632 591.5H620.63V700.86H632V591.5Z" fill="white"/>
<path id="Vector 93" d="M653.65 557.39H642.28V700.86H653.65V557.39Z" fill="white"/>
<path id="Vector 94" opacity="0.2" d="M675.31 636.97H663.94V700.86H675.31V636.97Z" fill="#fafafa"/>
<path id="Vector 95" opacity="0.2" d="M696.97 607.47H685.6V700.86H696.97V607.47Z" fill="#fafafa"/>
<path id="Vector 96" opacity="0.2" d="M718.62 573.09H707.25V700.86H718.62V573.09Z" fill="#fafafa"/>
<path id="Vector 97" opacity="0.2" d="M740.28 573.09H728.91V700.86H740.28V573.09Z" fill="#fafafa"/>
</g>
</svg>
