<svg width="2500" height="713" viewBox="0 0 2500 713" fill="none" xmlns="http://www.w3.org/2000/svg">
<g clip-path="url(#clip0)">
<path fill-rule="evenodd" clip-rule="evenodd" d="M2327.7 295.284C2325.45 295.733 2323.2 300.689 2323.2 303.39C2322.75 321.417 2322.3 369.181 2322.3 401.622C2322.3 402.525 2323.65 404.327 2325 404.327C2331.76 404.776 2347.98 405.226 2361.95 405.226C2381.32 405.226 2392.59 402.525 2398.9 399.825C2415.12 391.71 2422.78 374.137 2422.78 354.757C2422.78 311.056 2392.14 294.381 2346.63 294.381C2343.47 293.932 2334.47 293.932 2327.7 295.284V295.284ZM2443.96 496.7C2443.96 452.091 2411.06 427.306 2351.59 427.306C2348.88 427.306 2329.96 426.856 2325.45 427.755C2324.1 428.209 2322.3 429.112 2322.3 430.465C2322.3 462.452 2321.85 513.375 2323.2 533.199C2324.1 541.759 2330.41 553.927 2338.07 557.53C2346.18 562.037 2364.65 562.936 2377.27 562.936C2412.87 562.936 2443.96 543.111 2443.96 496.7V496.7ZM2235.79 270.504C2240.29 270.504 2253.8 271.852 2288.5 271.852C2321.4 271.852 2347.53 270.953 2379.52 270.953C2418.72 270.953 2472.79 284.918 2472.79 343.497C2472.79 372.335 2452.51 395.318 2425.93 406.583C2424.58 407.032 2424.58 407.931 2425.93 408.38C2463.78 417.848 2497.13 441.275 2497.13 485.431C2497.13 528.692 2470.09 556.178 2430.89 573.302C2407.01 583.663 2377.27 587.267 2347.08 587.267C2324.1 587.267 2262.37 584.566 2228.13 585.47C2224.52 584.112 2231.28 567.892 2234.43 565.191C2242.54 564.737 2248.85 564.288 2257.41 561.583C2269.58 558.434 2270.93 554.825 2272.73 536.354C2273.63 520.582 2273.63 464.703 2273.63 425.055C2273.63 370.533 2274.09 333.585 2273.63 315.562C2273.18 301.598 2268.23 297.086 2258.32 294.381C2250.65 293.033 2238.04 291.227 2227.67 289.879C2225.41 287.623 2233.08 272.301 2235.79 270.504ZM1975.79 550.772C1986.61 559.327 2007.78 562.931 2026.71 562.931C2051.04 562.931 2075.37 558.434 2098.8 537.247C2122.69 515.626 2139.36 482.281 2139.36 429.112C2139.36 378.189 2119.98 336.734 2080.33 312.408C2057.8 298.434 2028.96 292.584 1995.62 292.584C1985.7 292.584 1976.24 293.033 1970.39 295.733C1969.03 296.637 1965.88 300.689 1965.88 302.94C1964.98 311.954 1964.98 381.344 1964.98 421.9C1964.98 463.805 1964.98 522.384 1965.88 529.142C1965.88 535.904 1969.03 546.266 1975.79 550.772H1975.79ZM1873.5 270.499C1882.07 270.499 1914.96 271.852 1930.73 271.852C1959.12 271.852 1979.39 270.504 2033.01 270.504C2078.07 270.504 2115.92 282.667 2142.96 305.645C2175.85 334.034 2192.98 373.238 2192.98 420.997C2192.98 489.039 2161.88 528.243 2130.79 550.772C2099.71 573.751 2059.15 587.267 2001.47 587.267C1970.83 587.267 1918.12 586.368 1874.4 585.914H1873.96C1871.7 581.861 1877.56 566.09 1881.16 565.641C1892.88 564.288 1896.04 563.834 1901.89 561.588C1911.35 557.979 1913.16 553.023 1914.51 536.354C1915.86 505.26 1915.41 467.862 1915.41 425.504C1915.41 395.318 1915.86 336.285 1914.96 317.359C1913.61 301.593 1906.85 297.535 1893.33 294.83C1886.57 293.482 1877.56 291.676 1864.95 290.328C1863.14 287.169 1871.25 273.204 1873.5 270.504V270.499Z" fill="#212121"/>
<path fill-rule="evenodd" clip-rule="evenodd" d="M1328.29 568.341C1317.02 566.988 1308.91 565.191 1299 560.685C1297.65 559.781 1295.39 555.279 1295.39 553.473C1294.49 537.701 1294.49 492.643 1294.49 462.457C1294.49 438.121 1290.44 416.944 1280.07 402.076C1267.91 384.947 1250.34 375.04 1227.8 375.04C1207.98 375.04 1181.39 388.556 1159.31 407.481C1158.86 407.931 1155.26 411.09 1155.71 406.129C1155.71 401.173 1156.61 391.261 1157.06 384.498C1157.51 378.189 1153.91 375.04 1153.91 375.04C1139.49 382.247 1098.94 391.71 1084.06 393.058C1073.25 395.318 1070.55 405.68 1081.82 409.283H1082.27C1094.42 412.887 1102.54 416.944 1108.84 421.002C1113.35 424.605 1112.9 429.562 1112.9 433.619C1113.35 467.408 1113.35 519.23 1112 547.618C1111.55 558.883 1108.4 562.936 1100.28 564.737L1101.19 564.288C1094.88 565.641 1089.92 566.988 1082.26 567.892C1079.56 570.597 1079.56 585.016 1082.26 588.17C1087.22 588.17 1113.35 586.817 1134.99 586.817C1164.72 586.817 1180.04 588.17 1187.7 588.17C1190.85 584.566 1191.76 571.046 1189.96 567.892C1181.39 567.442 1175.08 566.544 1169.23 564.737C1161.12 562.931 1158.86 558.883 1158.41 549.42C1157.51 525.533 1157.51 475.069 1157.51 440.826C1157.51 431.363 1160.21 426.856 1162.92 424.151C1173.28 415.143 1189.96 408.834 1204.82 408.834C1219.24 408.834 1228.7 413.341 1235.91 419.2C1245.83 427.306 1248.98 439.024 1250.33 447.584C1252.58 466.959 1251.68 505.26 1251.68 538.604C1251.68 556.627 1250.33 561.134 1243.58 563.385C1240.42 564.737 1232.31 566.544 1222.85 567.437C1219.69 570.597 1220.6 584.566 1222.85 587.721C1235.91 587.721 1251.24 586.368 1273.76 586.368C1301.7 586.368 1319.73 587.721 1326.94 587.721C1329.18 585.016 1330.09 571.949 1328.29 568.341V568.341ZM1453.1 396.222C1429.22 396.222 1414.35 414.693 1414.35 443.526C1414.35 472.818 1427.42 506.612 1464.37 506.612C1470.67 506.612 1482.39 503.907 1487.79 497.599C1496.36 489.493 1502.22 473.268 1502.22 456.144C1502.22 418.746 1483.74 396.217 1453.1 396.217V396.222ZM1449.95 595.377C1440.94 595.377 1434.62 598.082 1430.57 600.338C1411.65 612.496 1403.09 624.215 1403.09 638.189C1403.09 651.251 1408.04 661.612 1418.86 670.626C1431.92 681.891 1449.95 687.301 1472.92 687.301C1518.89 687.301 1539.17 662.516 1539.17 638.189C1539.17 621.061 1530.6 609.796 1513.03 603.492C1500.41 598.082 1477.44 595.377 1449.95 595.377V595.377ZM1453.1 712.535C1425.62 712.535 1405.79 706.676 1388.67 693.609C1371.99 680.992 1364.79 662.066 1364.79 649C1364.79 645.397 1365.69 635.479 1373.8 626.471C1378.75 621.061 1389.57 610.699 1415.25 593.126C1416.15 592.677 1416.6 592.228 1416.6 591.319C1416.6 590.421 1415.7 589.518 1414.8 589.073C1393.62 580.963 1387.31 567.892 1385.51 560.685V559.781C1385.06 557.076 1384.16 554.376 1388.22 551.671C1391.37 549.42 1395.88 546.715 1400.83 543.565C1408.49 539.054 1416.6 534.098 1421.56 530.04C1422.46 529.142 1422.46 528.243 1422.46 527.34C1422.46 526.437 1421.56 525.533 1420.65 525.089C1389.12 514.723 1373.35 491.29 1373.35 456.144C1373.35 433.165 1383.71 412.438 1402.18 399.371C1414.8 389.459 1446.34 377.291 1467.07 377.291H1468.42C1489.6 377.74 1501.31 382.247 1517.98 388.106C1527 391.261 1535.56 392.608 1547.28 392.608C1564.85 392.608 1572.51 387.203 1578.81 380.899C1579.27 381.798 1580.17 384.054 1580.62 389.908C1581.07 395.768 1579.27 404.327 1574.76 410.636C1571.16 415.592 1563.05 419.2 1554.94 419.2H1552.68C1544.57 418.297 1540.96 417.394 1540.96 417.394L1539.17 418.297C1538.72 419.2 1539.16 420.099 1539.61 421.451L1540.07 422.355C1540.97 426.407 1542.77 438.57 1542.77 441.73C1542.77 478.678 1527.9 494.894 1512.13 507.062C1496.81 518.326 1479.24 525.533 1459.41 527.34C1458.96 527.34 1457.16 527.34 1453.1 527.789C1450.85 527.789 1447.7 528.243 1447.24 528.243H1446.79C1443.19 529.142 1434.18 533.648 1434.18 541.305C1434.18 548.063 1438.23 556.178 1457.61 557.53C1461.66 557.979 1465.71 557.98 1470.22 558.434C1495.91 560.23 1527.9 562.486 1542.77 567.442C1563.5 575.099 1576.56 593.575 1576.56 615.655C1576.56 649.005 1552.69 680.094 1513.03 699.464C1493.66 708.028 1474.28 712.535 1453.1 712.535V712.535ZM1709.94 398.473C1700.48 398.473 1691.91 400.719 1685.61 405.226C1668.04 416.041 1659.02 437.672 1659.02 469.21C1659.02 528.243 1688.76 569.698 1731.12 569.698C1743.74 569.698 1753.65 566.09 1762.21 558.883C1775.27 548.063 1782.04 526.437 1782.04 496.246C1782.04 437.672 1752.74 398.468 1709.94 398.468L1709.94 398.473ZM1718.05 591.324C1641.45 591.324 1613.96 535.001 1613.96 482.281C1613.96 445.333 1628.83 416.944 1658.57 396.666C1679.75 383.6 1704.99 376.393 1727.51 376.393C1786.09 376.393 1827.09 418.297 1827.09 478.678C1827.09 519.679 1810.87 552.12 1779.78 571.949C1764.91 581.861 1739.23 591.324 1718.05 591.324H1718.05V591.324ZM915.093 398.468C905.63 398.468 897.07 400.719 890.757 405.226C873.188 416.041 864.175 437.672 864.175 469.21C864.175 528.243 893.911 569.698 936.269 569.698C948.887 569.698 958.799 566.09 967.363 558.883C980.425 548.063 987.187 526.437 987.187 496.246C987.187 437.672 958.35 398.468 915.093 398.468ZM923.203 591.324C846.602 591.324 819.116 535.001 819.116 482.281C819.116 445.333 833.984 416.944 863.721 396.666C884.902 383.6 910.137 376.393 932.666 376.393C991.245 376.393 1032.25 418.297 1032.25 478.678C1032.25 519.679 1016.03 552.12 984.932 571.949C970.513 581.861 944.829 591.324 923.203 591.324ZM408.174 586.817C407.27 585.47 406.367 581.412 406.821 576.456C406.821 572.848 407.725 570.597 408.174 569.698C417.637 568.341 422.593 566.988 427.998 565.641C437.012 563.385 440.615 558.434 441.064 547.169C442.422 520.133 442.422 468.761 441.968 433.165V432.262C441.968 428.209 441.968 423.248 437.012 419.645C429.8 415.143 421.24 411.09 409.976 407.926C405.923 406.583 403.218 404.327 403.667 401.627C403.667 398.922 406.372 395.768 412.231 394.864C427.1 393.512 465.845 384.054 481.167 377.291C482.07 378.189 483.423 380.899 483.423 384.503L482.974 389.454C482.519 394.415 482.07 400.274 482.07 406.129C482.07 407.931 483.877 409.283 485.674 409.283C486.577 409.283 487.48 408.834 488.379 408.38C517.217 385.851 543.35 377.74 556.865 377.74C578.95 377.74 596.074 388.106 609.141 409.732C610.039 411.09 610.942 411.539 612.295 411.539C613.193 411.539 614.541 411.09 614.995 410.187C641.582 389.908 668.169 377.74 685.737 377.74C727.642 377.74 752.427 408.834 752.427 461.554C752.427 476.422 752.427 495.797 751.978 513.375C751.978 529.142 751.528 543.561 751.528 553.927C751.528 556.173 754.678 563.385 759.634 564.737C765.942 567.892 774.507 569.244 785.771 571.046H786.221C787.124 574.2 785.322 585.914 783.52 588.17C780.815 588.17 776.758 588.17 772.256 587.721C760.849 587.126 749.43 586.824 738.008 586.817C710.073 586.817 695.654 587.267 681.68 588.17C680.786 584.566 680.332 573.751 681.68 571.046C689.795 569.698 693.848 568.341 698.809 566.993C707.822 564.288 710.073 560.23 710.527 548.517C710.527 539.957 712.324 466.959 709.619 449.386C706.919 431.363 693.398 410.187 663.657 410.187C652.393 410.187 634.824 414.693 617.7 427.755C616.802 428.658 615.894 430.909 615.894 432.262V432.716C617.7 442.174 617.7 452.994 617.7 469.664V498.951C617.7 519.23 617.246 538.155 617.7 552.569C617.7 562.486 623.56 564.737 628.516 566.544C631.221 566.988 633.018 567.442 635.273 567.892C639.326 568.795 643.384 569.698 649.692 571.046C650.596 572.853 650.596 578.707 649.243 583.663C648.789 586.368 647.886 587.716 647.436 588.17C632.119 587.721 616.348 587.267 593.369 587.267C586.611 587.267 574.893 587.721 564.98 587.721C556.865 587.721 549.209 588.17 544.707 588.17C544.253 587.267 543.35 584.117 543.35 579.156C543.35 575.104 544.253 571.949 545.156 571.046C547.407 570.597 549.209 570.147 551.465 570.147C556.865 569.244 561.377 568.341 565.879 567.442C573.545 565.191 576.245 561.134 576.694 551.222C578.047 528.692 579.399 464.259 576.245 448.033C570.84 421.9 555.972 408.834 532.085 408.834C518.12 408.834 500.542 415.592 486.128 426.412C483.872 428.209 482.07 432.711 482.07 436.769V463.355C482.07 495.797 482.07 536.354 482.519 553.927C482.974 559.327 484.77 565.641 495.137 567.892C497.393 568.341 500.996 569.244 505.503 569.698L513.608 571.046C514.517 573.751 514.062 584.566 512.261 588.17C507.754 588.17 502.349 587.721 496.035 587.721C486.577 587.267 474.409 586.817 460.894 586.817C445.122 586.817 433.857 587.267 424.844 587.721C418.535 586.817 413.579 586.817 408.174 586.817V586.817Z" fill="#212121"/>
<path fill-rule="evenodd" clip-rule="evenodd" d="M171.157 694.962L152.686 688.648C152.686 688.648 154.941 594.479 121.143 587.721C98.6182 561.583 124.756 -520.741 205.859 584.112C205.859 584.112 177.92 598.077 172.964 621.964C167.554 645.396 171.157 694.962 171.157 694.962V694.962Z" fill="white"/>
<path fill-rule="evenodd" clip-rule="evenodd" d="M171.157 694.962L152.686 688.648C152.686 688.648 154.941 594.479 121.143 587.721C98.6182 561.583 124.756 -520.741 205.859 584.112C205.859 584.112 177.92 598.077 172.964 621.964C167.554 645.396 171.157 694.962 171.157 694.962V694.962Z" fill="#A6A385"/>
<path fill-rule="evenodd" clip-rule="evenodd" d="M181.074 603.941C181.074 603.941 342.842 497.599 304.985 276.353C268.491 115.499 182.427 62.7793 172.964 42.501C162.603 28.082 152.686 2.85254 152.686 2.85254L159.448 450.284C159.448 450.738 145.479 587.267 181.079 603.946" fill="white"/>
<path fill-rule="evenodd" clip-rule="evenodd" d="M181.074 603.941C181.074 603.941 342.842 497.599 304.985 276.353C268.491 115.499 182.427 62.7793 172.964 42.501C162.603 28.082 152.686 2.85254 152.686 2.85254L159.448 450.284C159.448 450.738 145.479 587.267 181.079 603.946" fill="#499D4A"/>
<path fill-rule="evenodd" clip-rule="evenodd" d="M143.228 609.796C143.228 609.796 -8.62796 506.158 0.385714 323.673C8.94528 141.183 116.186 51.5146 136.914 35.2939C150.435 20.875 150.884 15.4648 151.787 1.0459C161.25 21.3242 159.448 304.298 160.796 337.638C164.849 466.056 153.589 585.47 143.228 609.796Z" fill="white"/>
<path fill-rule="evenodd" clip-rule="evenodd" d="M143.228 609.796C143.228 609.796 -8.62796 506.158 0.385714 323.673C8.94528 141.183 116.186 51.5146 136.914 35.2939C150.435 20.875 150.884 15.4648 151.787 1.0459C161.25 21.3242 159.448 304.298 160.796 337.638C164.849 466.056 153.589 585.47 143.228 609.796Z" fill="#58AA50"/>
</g>
<defs>
<clipPath id="clip0">
<rect width="2500" height="713" fill="white"/>
</clipPath>
</defs>
</svg>
